<?xml version="1.0" encoding="UTF-8"?><svg id="character" xmlns="http://www.w3.org/2000/svg" xmlns:xlink="http://www.w3.org/1999/xlink" viewBox="0 0 856.07 716.2"><defs><style>.cls-1{fill:#fff;}.cls-2{fill:#4c4c4c;}.cls-3{fill:#3f3f3f;}.cls-4{fill:#51918f;}.cls-5{fill:#565656;}.cls-6{fill:#497f7c;}.cls-7{fill:#ba8a59;}.cls-8{clip-path:url(#clippath-2);}.cls-9{fill:#333;}.cls-10{clip-path:url(#clippath-1);}.cls-11{fill:#70584a;}.cls-12{fill:#2b2b2b;}.cls-13{fill:#3c3c3b;}.cls-14{clip-path:url(#clippath);}.cls-15{fill:none;}.cls-16{fill:#2d2d2d;}.cls-17{fill:#ccc;}.cls-18{fill:#5faaaa;}.cls-19{fill:#a87d50;}.cls-20{fill:#f47651;}.cls-21{fill:#452615;}.cls-22{fill:#d46539;}.cls-23{fill:#893e2c;}</style><clipPath id="clippath"><path class="cls-15" d="M733.81,339.85s-141.36,1.27-178.77,1.27-78.8,243.22-78.8,243.22h221.67l35.91-244.49Z"/></clipPath><clipPath id="clippath-1"><path class="cls-15" d="M537.09,411.04c-8.96,4.5-90.86,40.19-138.58,184.19h207.7s42.42-137.53,22-168.89c-17.58-27.01-82.16-19.8-91.12-15.3Z"/></clipPath><clipPath id="clippath-2"><path class="cls-15" d="M629.66,487.89c-10.41,29.59-30.19,71.05-56.39,89.8-23.7,16.1-72.85,16.82-101.14,17.26-11.81,.06-23.59-.23-35.38-.87,0,0-7.17-.45-7.17-.45l-1.63-34.93c29.69-5.59,62.3-11.1,91.11-19.51,6.96-2.29,14.18-4.11,19.97-8.04,.06-.09,.22-.2,.21-.25-.04-.04,.05-.11-.13-.05-.06,.02-.12,.04-.18,.07,.5-.56,1.13-1.15,2.02-2.23,9.27-11.37,16.15-25.43,22.91-39.01,3.27-6.65,7.54-15.98,10.68-22.79,0,0,55.13,21.02,55.13,21.02h0Z"/></clipPath></defs><path class="cls-18" d="M-2.27,359.66c0,224.03,185.86,349.52,423.51,349.52s437.1-125.49,437.1-349.52S737.59-64.69,386.53,32.25C157.46,95.51-2.27,135.63-2.27,359.66Z"/><path class="cls-13" d="M733.81,339.85s-141.36,1.27-178.77,1.27-78.8,243.22-78.8,243.22h221.67l35.91-244.49Z"/><g class="cls-14"><path class="cls-9" d="M712.79,334.32c-1.84,17.58-23.48,56.26-73.04,72.35,0,0,23.01,10.42,22.44,42.17-.57,31.75-28.43,135.27-28.43,135.27l-101.5,2.12-63.36-3.18,75.23-162.37,19.7-39.3,67.03-80.97,81.93,33.91Z"/></g><path class="cls-2" d="M659.36,582.07s49.89-234.71,67.47-240.95c17.58-6.24,39.12,10.2,35.72,53.29-3.4,43.09-42.52,194.77-42.52,194.77l-60.66-7.11Z"/><rect class="cls-17" x="29.49" y="600.21" width="780.11" height="15.31"/><path class="cls-7" d="M532.26,464.56c-31.41,11.48-66.64,22.68-96.73,36.59-2.69,1.29-5.34,2.67-7.83,4.28-24.76,15.74-50.8,30.33-76.34,44.63-20.37,11.28-40.8,22.38-61.58,32.99l-18.27-28.41c18.17-14.47,36.63-28.56,55.07-42.58,11.76-8.93,59.83-45.02,70.37-53.52,3.1-2.25,6.63-4.43,9.91-6.32,23.68-13.15,48.98-22.48,74.28-31.35,11.12-3.81,22.65-7.48,34-10.67,0,0,17.13,54.37,17.13,54.37h0Z"/><path class="cls-12" d="M439.76,440.34s-1.93,57.26,36.47,69.19c0,0,106.24-61.29,84.72-93.4-17.31-25.83-98.21-1.91-121.19,24.21Z"/><path class="cls-1" d="M537.09,411.04c-8.96,4.5-90.86,40.19-138.58,184.19h207.7s42.42-137.53,22-168.89c-17.58-27.01-82.16-19.8-91.12-15.3Z"/><g><g><path class="cls-16" d="M488.18,453.22c1.09-2.23,1.64-3.35,2.72-5.56,8.49-4.27,12.92-6.49,21.44-10.45-1.3,2.97-2,4.49-3.48,7.58-5.97,2.6-8.97,3.96-14.77,6.64-.05,.09-.07,.14-.11,.23,2.06,4.8,2.98,7.42,5.01,12.91-1.55,3.13-2.32,4.69-3.71,7.74-2.97-8.24-4.14-12.2-7.1-19.1Z"/><path class="cls-16" d="M527.3,476.68c7.09-2.09,10.8-3.19,18.32-5.23,.05-.1,.08-.15,.13-.25-3.13-6.11-4.78-9.31-7.92-15.45,1.48-3.27,2.17-4.88,3.45-8,4.1,7.6,8.2,15.2,12.27,22.81-1.32,2.44-2.02,3.66-3.48,6.11-9.15,2.61-18.26,5.37-27.36,8.15,1.84-3.2,2.77-4.84,4.59-8.15Z"/></g><path class="cls-16" d="M515.46,438.02c.02,.63,.03,.95,.05,1.59,.03,1.37-.32,2.91-1.01,4.4-3.89,8.32-8.1,16.49-12.23,24.69-.75,1.51-1.76,2.85-2.88,3.84-.52,.46-.78,.69-1.29,1.15,.57,.26,.85,.39,1.43,.66,2.79,1.29,4.22,1.96,7.18,3.34,.61,.28,.91,.43,1.53,.71,.03-.71,.04-1.06,.07-1.77,.07-1.53,.52-3.16,1.3-4.71,2.32-4.56,3.53-6.89,5.85-11.53,3.59,1.66,3.89,6.4,3.89,6.4,1.65-3.22,2.46-4.85,4.03-8.07-2.82-1.54-5.32-.96-7.01-.16,1.67-3.35,2.48-5.03,4.04-8.33,2.41,.92,3.63,1.4,6.15,2.41-1.79,.62-2.92,1.68-2.92,1.68,4.96,1.07,5.6,6.93,5.6,6.93,1.24-2.54,1.84-3.8,2.99-6.3,.32-.69,.47-1.03,.78-1.72,.34-.76,.51-1.14,.85-1.89,.68-1.54,1.66-2.89,2.83-3.88,.54-.46,.81-.68,1.35-1.13-9.76-4.07-14.07-5.81-22.57-8.3Z"/></g><g class="cls-10"><path class="cls-17" d="M528.29,415.55s2.6,15.21,39.62,16c30.78,.66-17.45,68.68-26.67,86.82-9.22,18.14-63.5,40.08-63.5,40.08l10.98,25.66,145.03,5.09,23.33-78.28s4.82-56.98-6.52-84.76c-11.34-27.78-54.43-36.06-54.43-36.06,0,0-67.39,9.45-67.85,25.45Z"/></g><g><g><path class="cls-19" d="M555.75,377.16c-6.93,20.4-20.03,44.11,9.91,44.11s28.08-9.36,35.01-29.76c6.93-20.4,2.5-40.15-9.91-44.11-12.4-3.96-28.08,9.36-35.01,29.76Z"/><g><g><path class="cls-7" d="M451.13,176.6s21.27-20.21,72.82-11.02c51.55,9.19,65.41,12.25,65.41,12.25,0,0,79.83,11.46,115.27,40.91,35.44,29.45,57.18,36.34,57.18,36.34,0,0,4.93,28.21-.65,49.69-5.58,21.49-24.23,39.43-53.74,38.13,0,0-10.05,57.19-117.36,56.62-107.31-.56-161.87-57.74-163.55-102.83-1.69-45.09,15.02-57.57,15.02-57.57l12.27-47.2-2.69-15.32Z"/><path class="cls-19" d="M426.68,281.35s8.16,79.92,97.27,89.67c89.11,9.75,149.23-25.52,175.04-130.5l18.31,20.08s36.91-10.78,46.95,14.57c0,0,3.05,78.59-56.82,67.72,0,0-13.24,69.38-144.54,56.63-131.31-12.75-142.34-82.48-136.21-118.17Z"/><path class="cls-1" d="M598.07,235.44s-20.06,52.33-.19,61.24c19.87,8.91,35.06,4.97,44.06-19.78s8.61-30.01,4.05-41.69c-4.56-11.68-10.03-15.17-18.85-17.4-8.82-2.22-26.35,8.58-29.07,17.62Z"/><path class="cls-1" d="M462.66,210.69s-16.86,51.69,1.55,60.45c18.4,8.76,30.66,1.98,39-22.36,8.33-24.34,9.78-26.6,5.56-38.09-4.23-11.48-10.94-12.04-19.12-14.23-8.17-2.19-24.46,5.33-26.98,14.23Z"/><polygon class="cls-20" points="529.87 267.08 543.88 309.15 515.08 301.03 529.87 267.08"/><path class="cls-18" d="M447.34,181.48s36.95-28.66,103.99-13.95c76.08,16.69,145.19,46.67,145.19,46.67l41.03,26.32,15.8,3.76s10.64-46.3,7.26-62.8c-3.37-16.5-24.77-73.31-75.94-94.12-51.17-20.81-70.8-30.93-95.57-31.5-24.78-.56-97.89,11.33-105.76,26.19-7.88,14.86-27.73,63.13-27.73,63.13,0,0-19.52,26.15-16.71,31.4,2.81,5.26,8.44,4.89,8.44,4.89Z"/><path class="cls-4" d="M694.16,97.3s36.39,37,39.14,73.74c2.75,36.75-7.17,62.15-7.17,62.15l24.67,12.84,6.06-12.75s7.73-43.45,4.41-58.93c-3.32-15.48-20.63-38.54-32.54-52.55-11.91-14.02-34.57-24.5-34.57-24.5Z"/><path class="cls-1" d="M501.7,161.23c.37-.56,6-7.7,7.69-16.04,1.69-8.33,3.57-14.08,3.57-14.08,0,0,22.86-.81,24.55-.81s52.87,11.29,53.43,11.74,10.87,12.63,7.5,23.69c-3.37,11.06-10.97,15.11-11.44,13.31-.46-1.8-32.59-10.91-47.82-12.19-15.23-1.28-31.24-.37-31.24-.37l-6.24-5.25Z"/><path class="cls-21" d="M517.73,343.32c3.7,.8,7.5,1.2,11.28,1.2,9.76,0,19.41-2.61,26.8-7.47,6.57-4.32,10.7-9.98,11.94-16.36l-9.74-1.9c-.92,4.69-4.67,8.01-7.66,9.98-7.99,5.25-19.97,7.17-30.53,4.87-16.1-3.5-25.67-14.55-23.26-26.87l-9.74-1.9c-3.45,17.64,9.54,33.82,30.89,38.46Z"/><polygon class="cls-22" points="498.16 296.79 515.67 303.56 543.88 309.15 518.62 299.81 529.34 266.58 498.16 296.79"/><path class="cls-22" d="M529.87,267.08l13.81,40.77s.06,.1,.1,.14c-.64-12.8-7.04-30.09-13.91-40.91Z"/><g><path class="cls-12" d="M588.78,181.48c.27,0,.54,0,.81-.02,9.23-.55,11.99-11.8,13.03-16.04,1.58-6.43,1.21-15.42-3.33-19.98-.83-.83-1.83-1.63-2.99-2.4-4.25-14.18-13.66-26.24-32.32-31.28-5.94-6.51-17.66-20.6-17.12-29.7,0,0-5.11,8.67-6.09,19.26-14.38-26.22-49.61-16.26-49.61-16.26,6.49,.41,21.4,29.39,22.94,34.21-11.81-1.77-20.76,5.6-20.76,5.6,10.04,2.02,15.08,4.46,17.61,6.31-1.7,.94-2.94,2.56-3.36,4.54-1.91,8.91-8.27,23.7-9,25.4-.76,1.42-.79,2.96-.07,4.29,1.58,2.92,4.97,3.03,14.03,3.32,7.06,.23,16.74,.54,28.96,2.19,15.06,2.03,25.85,5.23,33.73,7.57,6,1.78,10.12,3,13.55,3Zm-76.01-20.03c-2.27-.07-4.58-.15-6.32-.27,2.18-5.22,6.51-16.06,8.18-23.68,5.51-1.26,21.82-1.11,40.19,1.35,19.98,2.68,34.68,7.06,39.31,11.71,1.79,1.8,2.84,7.32,1.42,13.11-2.26,9.21-4.73,10.41-6.4,10.51-2.32,.13-6.53-1.11-11.86-2.69-8.11-2.41-19.21-5.7-34.83-7.8-12.59-1.7-22.89-2.03-29.7-2.25Z"/><path class="cls-12" d="M521.09,145.2c-1.66-.07-3.06,1.21-3.13,2.87-.07,1.66,1.21,3.06,2.87,3.13,1.66,.07,3.06-1.21,3.13-2.87,.07-1.66-1.21-3.06-2.87-3.13Z"/><path class="cls-12" d="M539.32,145.99c-1.66-.07-3.06,1.21-3.13,2.87-.07,1.66,1.21,3.06,2.87,3.13,1.66,.07,3.06-1.21,3.13-2.87,.07-1.66-1.21-3.06-2.87-3.13Z"/><path class="cls-12" d="M557.47,148.54c-1.66-.07-3.06,1.21-3.13,2.87-.07,1.66,1.21,3.06,2.87,3.13,1.66,.07,3.06-1.21,3.13-2.87,.07-1.66-1.21-3.06-2.87-3.13Z"/><path class="cls-12" d="M578.4,156.32c.07-1.66-1.21-3.06-2.87-3.13-1.66-.07-3.06,1.21-3.13,2.87-.07,1.66,1.21,3.06,2.87,3.13,1.66,.07,3.06-1.21,3.13-2.87Z"/><path class="cls-12" d="M811.1,293.05c-1.04-9.53-7.85-16.62-14.32-22.66-11.55-10.06-24.46-18.03-37.84-25.18,2.27-9.38,10.17-44.09,7.13-59.89-10.03-52.15-49.23-84.76-81.59-103.29,.67-3.78,.65-12.61-12.41-17.27-8.66-3.09-14.49,.09-17.5,2.67-28.98-11.97-55.35-17.1-67.72-17.41-33.61-.84-85.92,12.36-101.75,25.68-15.15,12.75-30.99,59.17-33.74,67.48-3.25,4.44-14.27,19.91-15.72,27.21-1.98,9.99,3.01,20.58,11.82,25.82-2.56,10.27-4.37,20.84-5.59,31.34-1.31,2.51-2.71,5.12-4.04,7.73-13.74,26.16-21.68,57.36-12.95,86.45,12.45,37.08,56.74,63.77,92.53,74.15,34.9,10.15,72.61,11.2,107.81,1.99,6.99-1.81,13.87-4.01,20.56-6.67-8.88,1.47-17.65,2.9-26.53,3.9-19.28,2.25-38.84,3.06-58.18,1.19-41.26-4.14-83.16-20.73-111.31-51.85-6.67-7.59-12.51-16.01-15.49-25.56-.95-3.2-1.68-6.51-2.21-9.81-3.15-19.48,1.08-39.37,8.62-57.47,.08,4.33,.35,8.65,.88,12.96,1.18-5.85,3.66-17.65,4.94-23.48,4.88-23.16,11.23-45.89,18.88-68.26l-.04-.02c13.15-8.59,25.02-9.98,24.29-9.98-26.06-.03-39.32,8.79-44.41,13.32-.12-1.27-.08-2.55,.17-3.81,.81-4.09,8.94-16.44,14.45-23.9l.48-.65,.25-.76c4.72-14.45,19.47-54.08,30.95-63.73,14.16-11.91,63.92-24.14,95.12-23.35,15.19,.38,53.07,8.6,90.02,29.05,5.52,3.05,11.29,6.55,17.1,10.5,2.48,4.36,5.51,10.99,7.85,20.26,4.25,16.83,7.02,45.89-3.17,89.8-26.84-13.85-59.47-23.88-87.96-26.89,28.87,9.48,57.39,20.6,83.73,35.7-1,7.86-1.36,27.44,15.48,44.95,0,0-4.08,31.83-1.43,32,4.96,.33,17.06-24.39,20.96-52.61,2.16,1.06,4.96,2.46,6.53,3.25,2.78,1.39,5.54,2.82,8.3,4.27,4.55,3.58,9.08,8.31,12.25,14.44,5.59,10.81,5.88,23.84,.86,38.73-11.5,34.08-33.03,37.92-43.55,37.59,4.78-11.75,7.4-24.49,7.78-36.91,.2-5.17,.13-10.33-.45-15.48-3.06,9.89-5.58,19.63-8.76,29.06-9.79,30.32-23.57,52.2-49.87,70.73,21.7-5.06,37.64-20.21,47.46-39.08,1.38,.15,3.03,.26,4.9,.26,3.95,0,8.86-.49,14.16-2.17,10.47-3.31,24.37-11.97,33.78-34.12,.69,.12,1.31,.22,1.97,.32,8.98,1.27,17.96,1.71,27,.01,10.27-1.84,20.52-8.7,19.58-20.54Zm-105.78-174.67c-1.43-5.55-3.08-10.19-4.73-14,24.61,18.31,48.49,45.17,55.73,82.81,2.25,11.68-3.16,39.19-6.46,53.32-3.08-1.55-6.16-3.08-9.26-4.59-2.08-.98-6.25-2.9-8.34-3.86-8.29-7.4-18.66-14.35-30.23-20.59,10.72-45.51,7.77-75.66,3.29-93.09Z"/><path class="cls-12" d="M730.15,304.71l-2.73,1.23s.92,.26,2.27,.32c0,0,0,0,0,0h0s-4.37,9.9,3.25,11.63c7.62,1.73,10.74-4.64,10.74-4.64,0,0-3.03,2.86-5.97,2.08-1.61-.43-2.82-.67-3.51-1.33,5.73-1.19,9.77-10.47,11.07-18.32,.93-5.63,2.45-10.45,2.29-14.11,4.35,.85,4.92,10.02,4.92,10.02,0,0,4.2-11.95-5.74-15.7-3.41-1.29-5.93-.7-7.76,.63-1.76,1.15-3.32,3.23-4.16,6.2-1.01-.39-1.73-.59-1.73-.59l1.44,1.7s5.09,5.74,3.88,12.17c-1.21,6.43-8.25,8.72-8.25,8.72Z"/></g><g><path class="cls-6" d="M647.76,143.18c-.29,1.64-1.08,3.14-2.28,4.31-.56,.55-.84,.82-1.4,1.37,1.04,.19,1.56,.29,2.6,.49,5.03,.99,7.5,1.56,12.33,2.81,.99,.26,1.49,.39,2.48,.66-.31-.76-.47-1.13-.78-1.88-.68-1.62-.89-3.36-.61-5,.84-4.87,1.24-7.29,2.05-12.14,5.65,1.62,8.11,6.55,8.11,6.55,.52-3.35,.77-5.01,1.27-8.33-4.11-1.62-7.17-.99-9.06-.13,.58-3.51,.88-5.27,1.47-8.79,3.63,.98,5.41,1.5,8.85,2.62-1.91,.62-2.88,1.71-2.88,1.71,6.64,1.17,9.49,7.31,9.49,7.31,.33-2.58,.49-3.87,.8-6.43,.08-.71,.13-1.06,.21-1.76,.09-.78,.14-1.17,.23-1.95,.19-1.59,.78-2.98,1.68-3.96,.42-.45,.63-.68,1.03-1.13-10.24-4.65-21.03-7.57-31.93-10.12,.29,.76,.44,1.14,.74,1.89,.64,1.62,.81,3.39,.49,5.08-1.06,5.44-1.55,8.11-2.5,13.43-1.35-1.1-2.86-1.38-2.86-1.38,2.24,2.59,1.7,7.67,1.41,9.54-.37,2.09-.55,3.13-.92,5.22Z"/><path class="cls-6" d="M684.08,139.47c-1.16-1.29-2.42-1.77-2.42-1.77,1.91,2.85,1.65,7.79,1.44,9.77-.28,2.19-.43,3.28-.74,5.49-.24,1.63-.92,3.08-1.96,4.15-.49,.51-.74,.76-1.24,1.27,6.26,2.23,9.28,3.43,15.09,5.88-.29-.81-.44-1.21-.73-2.01-.62-1.7-.85-3.49-.68-5.13,.24-2.21,.35-3.3,.55-5.48,.22-1.94,.95-6.58,2.96-7.66,0,0-1.11-.54-2.31-.28,.37-5.19,.5-7.74,.65-12.66,.06-1.49,.45-2.74,1.09-3.57,.3-.39,.45-.59,.73-.97-4.56-2.88-7.09-4.23-12.55-6.7,.29,.76,.43,1.14,.72,1.89,.61,1.6,.87,3.28,.74,4.83-.47,5.09-.74,7.68-1.35,12.94Z"/><path class="cls-6" d="M640.75,175.92c-.25,1.17-.84,2.25-1.69,3.09-.4,.4-.6,.6-1,1,3.49,.74,5.22,1.15,8.65,2.04,.61,.16,.91,.24,1.52,.4,.61,.16,.92,.25,1.53,.41,.97-4.33,1.43-6.46,2.29-10.7,1.41,4.84,2.07,7.31,3.3,12.31,10.92,3.45,21.66,7.33,32.38,11.37,.65,.25,.98,.37,1.63,.62-.18-.57-.28-.86-.46-1.43-.39-1.23-.47-2.54-.23-3.75,.12-.59,.18-.89,.29-1.48,.1-.53,.16-.8,.26-1.33,.37-1.93,.55-2.89,.89-4.81,0,0-3.24,2.53-7.65,.22,0,0,.33,1.18,1.39,2.53-2.4-.92-3.61-1.37-6.04-2.27,.51-2.43,.75-3.64,1.22-6.06,3.35,1.63,4.77,4.98,4.77,4.98,.48-2.46,.71-3.68,1.14-6.13-2.39-1.14-4.25-1.09-5.55-.72,.46-2.4,.67-3.59,1.09-5.98,2.39,.88,3.57,1.33,5.91,2.24-1.35,.4-2.03,1.17-2.03,1.17,4.55,1.11,6.49,5.67,6.49,5.67,.32-1.92,.47-2.87,.76-4.78,.08-.53,.12-.79,.2-1.32,.09-.58,.13-.88,.21-1.46,.17-1.19,.64-2.23,1.33-2.99,.32-.35,.48-.52,.8-.87-6.38-2.7-12.86-5.06-19.39-7.37-1.97,3.51-2.99,5.27-5.09,8.82,3.39,1.12,5.06,1.71,8.37,2.91-5.69,4.11-11.43,8.14-17.17,12.19,3.14-5.11,4.65-7.62,7.58-12.62-3.4-1.12-5.12-1.66-8.59-2.69,2.71-4.54,4.03-6.79,6.6-11.27-2.7-.81-4.06-1.2-6.82-1.95-.73,4.06-1.11,6.1-1.91,10.22-1.46-4.74-2.22-7.08-3.8-11.67-.05-.01-.08-.02-.14-.03-.62-.15-.93-.22-1.56-.37-3.51-.81-5.29-1.19-8.9-1.85,.24,.5,.35,.75,.59,1.25,.5,1.06,.65,2.24,.46,3.37-.67,3.73-1.02,5.6-1.74,9.38-.93-.79-1.97-1-1.97-1,1.5,1.82,1.1,5.33,.85,6.74-.31,1.57-.47,2.35-.79,3.93Z"/></g><path class="cls-23" d="M486.22,263.95c-.82-.08-1.65-.23-2.48-.45-3.86-1.04-7.08-3.52-9.07-6.98-1.99-3.46-2.52-7.49-1.48-11.35l5.36-19.9c1.04-3.86,3.52-7.08,6.98-9.07,3.46-1.99,7.49-2.52,11.35-1.48,3.86,1.04,7.08,3.52,9.07,6.98,1.99,3.46,2.52,7.49,1.48,11.35l-5.36,19.9c-1.92,7.14-8.73,11.68-15.85,11Z"/><path class="cls-21" d="M457.26,232.98c-.1-3.98,.28-7.94,.84-11.87,.64-3.98,1.26-7.99,2.59-11.81,6.34-17.77,29.19-23.06,43.15-10.52,6.63,5.9,10.13,15.12,8.88,23.94-.16,1.85-.94,4.31-1.39,6.13-.95,3.59-3.59,13.3-4.6,17.01-1.29,4.18-3.35,13.54-5.27,17.39-4.78,9.98-16,16.3-27,15.13-8.34-.68-17.65-5.92-18.85-14.81,4.56,3.43,8.83,6.61,14.18,8.41,12.32,3.97,25.18-3.83,27.72-16.43,1.47-5.67,4.49-17.06,6.01-22.72,.49-1.83,1.81-6.7,2.29-8.48,1.09-4.11,.91-8.53-.53-12.53-4.81-13.91-22.77-18.87-33.98-9.18-3.31,2.86-5.87,6.74-7.36,10.92,0,0-.97,2.74-.97,2.74-1.24,3.49-4.47,13.04-5.69,16.67h0Z"/><path class="cls-23" d="M622.88,289.94c-.88-.08-1.77-.24-2.65-.47-4.14-1.08-7.6-3.62-9.75-7.16-2.15-3.54-2.74-7.66-1.64-11.59l5.64-20.27c1.09-3.93,3.73-7.21,7.43-9.22,3.7-2.02,8.01-2.53,12.15-1.45,4.14,1.08,7.6,3.62,9.75,7.16,2.15,3.54,2.74,7.66,1.64,11.59l-5.64,20.27c-2.02,7.27-9.29,11.87-16.93,11.15Z"/><path class="cls-21" d="M591.57,258.19c-.07-4.06,.35-8.09,.95-12.09,.69-4.05,1.34-8.14,2.73-12.02,6.7-18.1,31.15-23.4,46.17-10.53,7.14,6.04,10.93,15.48,9.64,24.46-.17,1.89-.98,4.39-1.45,6.25-1,3.66-3.78,13.56-4.84,17.34-1.36,4.26-3.53,13.8-5.56,17.72-5.07,10.16-17.06,16.55-28.85,15.3-8.93-.74-18.94-6.12-20.27-15.21,4.91,3.52,9.5,6.79,15.23,8.65,13.22,4.11,26.96-3.79,29.61-16.63,1.54-5.78,4.73-17.38,6.33-23.15,.52-1.87,1.91-6.83,2.41-8.64,1.15-4.19,.93-8.7-.64-12.79-5.23-14.22-24.49-19.36-36.46-9.52-3.53,2.9-6.25,6.85-7.83,11.11l-1.03,2.8c-1.31,3.56-4.81,13.27-6.14,16.96h0Z"/></g><path class="cls-11" d="M691.97,287.16c2.67,.62,2.67,6.69,6.22,7.48,3.55,.79,4.53-3.09,7.79-.05s-11.05,23.85-16.49,19.83c-5.44-4.02-2.49-28.42,2.48-27.26Z"/></g></g><path class="cls-12" d="M546.31,399.59s-10.43,27.68,25.94,23.36c0,0-18.73-.46-20.66-8.59-1.93-8.13,2.2-15.84,2.2-15.84"/><path class="cls-12" d="M597.26,400.44s-2.76,13.26-9.59,17.02c0,0,10.9-2.91,16.28-17.02"/></g><path class="cls-3" d="M354.1,555.99h88.87v30.24h-103.94v-15.17c0-8.32,6.75-15.07,15.07-15.07Z"/><ellipse class="cls-7" cx="441.71" cy="560.86" rx="32.26" ry="23.25"/><path class="cls-7" d="M479.64,551.74s-12.47-17.86-45.07-17.01c-32.6,.85-78.52,26.36-69.73,36,8.79,9.64,37.42-11.34,53.01-7.65,15.59,3.69,46.21,26.7,47.34,26.11,1.13-.59,22.49-18.05,23.48-18.17,.99-.12-9.02-19.28-9.02-19.28Z"/><path class="cls-7" d="M629.66,487.89c-10.41,29.59-30.19,71.05-56.39,89.8-23.7,16.1-72.85,16.82-101.14,17.26-11.81,.06-23.59-.23-35.38-.87,0,0-7.17-.45-7.17-.45l-1.63-34.93c29.69-5.59,62.3-11.1,91.11-19.51,6.96-2.29,14.18-4.11,19.97-8.04,.06-.09,.22-.2,.21-.25-.04-.04,.05-.11-.13-.05-.06,.02-.12,.04-.18,.07,.5-.56,1.13-1.15,2.02-2.23,9.27-11.37,16.15-25.43,22.91-39.01,3.27-6.65,7.54-15.98,10.68-22.79,0,0,55.13,21.02,55.13,21.02h0Z"/><g class="cls-8"><path class="cls-19" d="M558.25,504.78s17.76,19,28.72,26.13c-2.27,7.13-17.39,29.43-28.72,34.34-11.34,4.91-104.69,3.4-124.35,10.96-19.65,7.56,2.65,10.02,2.65,10.02h117.91s33.28-8.5,35.54-11.15c2.27-2.65,38.12-34.27,39.66-35.09,1.54-.82,7.03-32.57,4.1-32.95-2.94-.38-37.62-13.61-37.62-13.61l-37.89,11.34Z"/></g><path class="cls-12" d="M542.46,492.31s24.86,42.33,88.52,34.2c0,0,32.98-91.95-1.13-110.13-34.1-18.18-72.98,44.27-87.39,75.93Z"/><path class="cls-7" d="M377.32,571.12l-15.34-4.55c4.51-15.22,17.47-32.5,31.35-35.07,12.29-2.28,30.29,5.52,32.3,6.42l-6.51,14.62,3.26-7.31-3.25,7.31c-6.3-2.79-17.56-6.28-22.88-5.3-5.67,1.05-15.38,11.94-18.92,23.89Z"/><path class="cls-7" d="M361.26,576.63l-10.81-11.8c16.67-15.28,41.33-26.12,42.37-26.57l6.39,14.67c-.39,.17-23.33,10.3-37.95,23.7Zm37.95-23.7l-3.2-7.33,3.2,7.33s0,0,0,0h0Z"/><path class="cls-7" d="M226.21,572.69c0,18.06,108.85,18.06,108.85,0s-24.37-32.69-54.43-32.69-54.43,14.64-54.43,32.69Z"/><path class="cls-19" d="M421.24,511.01c-3.07,4.48-80.69,43.18-86.17,49.84-5.48,6.66-10.77,10.25-10.77,10.25l-25.32-2.27s8.8-8.77,16.25-12.85,89.58-51.59,89.58-51.59l16.44,6.61Z"/><path class="cls-19" d="M373.48,575.83s27.5-12.47,32.46-9.35c4.96,3.12,8.22,12.47,16.44,13.89,8.22,1.42,22.11-3.69,22.11-3.69,0,0,10.63-3.15,0-2.92-10.63,.23-22.25,1.22-25.94-3.03-3.69-4.25-5.67-9.55-12.19-9.88s-29.76,8.74-34.44,11.43c-4.68,2.69-3.69,6.95-3.69,6.95l5.24-3.4Z"/><path class="cls-19" d="M361.15,562.79s22.09-15.59,34.87-18.9c0,0-23.24,3.42-40.82,20.89-14.29,14.2,7.09,4.44,7.09,4.06s-1.13-6.05-1.13-6.05Z"/><path class="cls-19" d="M369.15,550.92s10.04-6.74,25.54-10.52c0,0-9.35-.44-21.18,4.57,0,0-3.05,2.94-4.36,5.95Z"/><rect class="cls-3" x="133.28" y="300.41" width="342.96" height="217.97" rx="17.57" ry="17.57"/><rect class="cls-16" x="112.34" y="300.41" width="342.96" height="217.97" rx="17.57" ry="17.57"/><rect class="cls-2" x="167.38" y="354.88" width="195.56" height="121.34" rx="17.57" ry="17.57"/><rect class="cls-3" x="155.44" y="354.88" width="195.56" height="121.34" rx="17.57" ry="17.57"/><polygon class="cls-5" points="281.29 562.7 281.29 390.3 234.38 390.3 234.38 562.7 171.57 562.7 171.57 578.16 374.64 578.16 374.64 562.7 281.29 562.7"/><polygon class="cls-2" points="265.16 562.7 265.16 390.3 218.25 390.3 218.25 562.7 155.44 562.7 155.44 578.16 342.62 578.16 342.62 562.7 265.16 562.7"/><rect class="cls-16" x="95.25" y="578.16" width="662.75" height="22.06"/><rect class="cls-5" x="596.14" y="578.16" width="161.86" height="22.06"/><path class="cls-12" d="M565.56,504.52c-6.41,14.65-20.15,27.49-34.71,33.87,9-10.18,16.51-21.3,22.94-33.19,0,0,2.58-4.72,2.58-4.72l9.19,4.04h0Z"/><path class="cls-12" d="M560.55,590.99l-3.16-9.52c27.93-9.27,54.04-61.3,54.3-61.82l8.99,4.46c-1.14,2.29-28.24,56.3-60.13,66.89Z"/><path class="cls-12" d="M415.02,537.61c20.75-10.88,51.83-7.09,64.61,14.13-5.27-2.86-10.16-5.54-15.3-7.56-15.64-6.52-32.43-7.57-49.32-6.57h0Z"/><path class="cls-12" d="M476.14,547.74c14.17-3.44,28.28-7.25,42.04-12.06,8.18-2.86,16.32-6.25,24.23-9.76,0,0,1.81,3.27,1.81,3.27-1.81,1.15-3.89,2.4-5.76,3.5-13.75,7.53-28.92,12.43-44.34,15.12-5.88,1-11.79,1.68-17.8,1.72l-.19-1.79h0Z"/><path class="cls-12" d="M367.85,551.74s8.36-17.82,24.74-21.91c19.24-4.81,32.2,4.93,32.2,4.93l-6.65,2.05s-13.41-7.6-25.81-3.77c-12.4,3.83-19.19,16.23-19.19,16.23l-5.29,2.47Z"/><path class="cls-12" d="M394.69,540.4s-32.37,11.6-40.84,22.3h-5.61s18.92-17.45,46.46-22.3Z"/><path class="cls-12" d="M399.57,543.1s-25.26,9.8-33.85,19.6h-5.61s16.46-14.76,39.46-19.6Z"/><path class="cls-12" d="M374.64,576.63s25.55-12.16,32-8.9c6.45,3.27,3.81,8.83,14.61,13.66h4.99s-8.4-4.78-11.21-10.28c-2.81-5.5-8.92-9.92-17.41-7.23-8.49,2.69-22.97,8.58-22.97,8.58v4.17Z"/><path class="cls-12" d="M411.39,517.42s-69.64,38.08-72.98,40.76c-3.34,2.68-3.34,4.53-3.34,4.53h-8.76s6.89-7.09,18.54-13.44c11.64-6.35,51.49-27.84,55.6-31.85h10.96Z"/><path class="cls-12" d="M281.29,539.99s7.52,.1,10.47,1.64c0,0-2.98-3.39-10.47-3.36"/><path class="cls-12" d="M318.27,518.37l-24.98,19.15s6.74-9.43,19.76-19.15h5.22Z"/></svg>