<?xml version="1.0" encoding="UTF-8"?><svg xmlns="http://www.w3.org/2000/svg" xmlns:xlink="http://www.w3.org/1999/xlink" viewBox="0 0 856.84 794.36"><defs><style>.cls-1{fill:#6d429c;}.cls-2{fill:#0070ba;}.cls-3{fill:#fff;}.cls-4{fill:#66217b;}.cls-5{fill:#963dad;}.cls-6{fill:#4c4c4c;}.cls-7{fill:#812c94;}.cls-8{fill:#3f3f3f;}.cls-9{fill:#ff7d00;}.cls-10{fill:#5c2d91;}.cls-11{fill:#51918f;}.cls-12{fill:#004171;}.cls-13{fill:#565656;}.cls-14{fill:#497f7c;}.cls-15{fill:#f16529;}.cls-16{fill:#7711f7;}.cls-17{fill:#ba8a59;}.cls-18{clip-path:url(#clippath-2);}.cls-19{stroke-dasharray:0 0 14.44 24.06;}.cls-19,.cls-20,.cls-21,.cls-22,.cls-23{fill:none;}.cls-19,.cls-21,.cls-22,.cls-23{stroke:#b5b5b5;stroke-linecap:round;stroke-linejoin:round;stroke-width:2px;}.cls-24{fill:#df8dff;}.cls-25{fill:#333;}.cls-26{clip-path:url(#clippath-1);}.cls-27{clip-path:url(#clippath-4);}.cls-28{fill:#3178c6;}.cls-29{fill:#70584a;}.cls-30{fill:#f7df1e;}.cls-31{fill:#270b00;}.cls-32{fill:#2b2b2b;}.cls-33{fill:#29a8e0;}.cls-34{fill:#c3002f;}.cls-35{fill:#dd0031;}.cls-36{fill:#3c3c3b;}.cls-37{clip-path:url(#clippath);}.cls-38{clip-path:url(#clippath-3);}.cls-39{fill:#2d2d2d;}.cls-40{fill:#ccc;}.cls-41{fill:#5faaaa;}.cls-21{stroke-dasharray:0 0 15 25;}.cls-42{fill:#e44d26;}.cls-43{fill:#1f003e;}.cls-44{fill:#a87d50;}.cls-23{stroke-dasharray:0 0 14.67 24.45;}.cls-45{fill:#f47651;}.cls-46{fill:#452615;}.cls-47{fill:#d46539;}.cls-48{fill:#893e2c;}</style><clipPath id="clippath"><path class="cls-20" d="M612.13,396.37s-73.21,.66-92.6,.66-40.82,125.97-40.82,125.97h114.82l18.6-126.63Z"/></clipPath><clipPath id="clippath-1"><path class="cls-20" d="M510.24,433.25c-4.64,2.33-47.06,20.81-71.78,95.4h107.58s21.97-71.23,11.4-87.48c-9.1-13.99-42.55-10.25-47.19-7.92Z"/></clipPath><clipPath id="clippath-2"><path class="cls-20" d="M558.19,473.05c-5.39,15.33-15.64,36.8-29.21,46.51-12.28,8.34-37.73,8.71-52.39,8.94-6.12,.03-12.22-.12-18.33-.45,0,0-3.72-.23-3.72-.23l-.84-18.09c15.38-2.9,32.27-5.75,47.19-10.11,3.6-1.18,7.34-2.13,10.34-4.17,.03-.05,.11-.1,.11-.13-.02-.02,.03-.06-.07-.03-.03,0-.06,.02-.09,.03,.26-.29,.59-.6,1.05-1.15,4.8-5.89,8.36-13.17,11.87-20.21,1.69-3.45,3.91-8.28,5.53-11.8,0,0,28.55,10.89,28.55,10.89h0Z"/></clipPath><clipPath id="clippath-3"><path class="cls-20" d="M202.81,599.24v-20.46c0-8.11-4.33-15.61-11.36-19.67l-17.72-10.23c-7.03-4.06-15.68-4.06-22.71,0l-17.72,10.23c-7.03,4.06-11.36,11.55-11.36,19.67v20.46c0,8.11,4.33,15.61,11.36,19.67l17.72,10.23c7.03,4.06,15.68,4.06,22.71,0l17.72-10.23c7.03-4.06,11.36-11.55,11.36-19.67Z"/></clipPath><clipPath id="clippath-4"><ellipse class="cls-20" cx="790.17" cy="571.68" rx="44.14" ry="44.07"/></clipPath></defs><g id="acatar"><path class="cls-21" d="M333.39,681.77c2-8.77,134.49-238.57,134.49-238.57l-113.38-266.61"/><circle class="cls-21" cx="463.92" cy="398.73" r="353.22"/><g><line class="cls-22" x1="651.38" y1="36.71" x2="647.98" y2="43.39"/><line class="cls-23" x1="636.9" y1="65.18" x2="482.86" y2="368.08"/><polyline class="cls-22" points="477.32 378.98 473.92 385.66 466.86 383.12"/><line class="cls-19" x1="444.23" y1="374.97" x2="93.37" y2="248.62"/><line class="cls-22" x1="82.05" y1="244.55" x2="74.99" y2="242.01"/></g><line class="cls-21" x1="478.72" y1="397.07" x2="696" y2="746.29"/><g><path class="cls-41" d="M230.88,406.63c0,116.04,96.27,181.03,219.36,181.03s226.4-65,226.4-181.03-62.55-219.79-244.37-169.58c-118.65,32.77-201.38,53.54-201.38,169.58Z"/><path class="cls-36" d="M612.13,396.37s-73.21,.66-92.6,.66-40.82,125.97-40.82,125.97h114.82l18.6-126.63Z"/><g class="cls-37"><path class="cls-25" d="M601.24,393.51c-.95,9.1-12.16,29.14-37.83,37.47,0,0,11.92,5.4,11.62,21.84-.29,16.44-14.73,70.06-14.73,70.06l-52.57,1.1-32.82-1.65,38.97-84.1,10.2-20.36,34.72-41.94,42.43,17.56Z"/></g><path class="cls-6" d="M573.57,521.83s25.84-121.57,34.94-124.8c9.1-3.23,20.26,5.29,18.5,27.6-1.76,22.32-22.02,100.88-22.02,100.88l-31.42-3.68Z"/><rect class="cls-40" x="247.33" y="531.23" width="404.06" height="7.93"/><path class="cls-17" d="M507.74,460.96c-16.27,5.94-34.52,11.75-50.1,18.95-1.39,.67-2.76,1.38-4.06,2.21-12.82,8.15-26.31,15.71-39.54,23.12-10.55,5.84-21.13,11.59-31.9,17.09l-9.46-14.72c9.41-7.49,18.97-14.79,28.52-22.06,6.09-4.62,30.99-23.32,36.45-27.72,1.61-1.16,3.43-2.29,5.14-3.27,12.27-6.81,25.37-11.64,38.47-16.24,5.76-1.97,11.73-3.87,17.61-5.53,0,0,8.87,28.16,8.87,28.16h0Z"/><path class="cls-32" d="M459.83,448.42s-1,29.66,18.89,35.84c0,0,55.02-31.75,43.88-48.37-8.97-13.38-50.87-.99-62.77,12.54Z"/><path class="cls-3" d="M510.24,433.25c-4.64,2.33-47.06,20.81-71.78,95.4h107.58s21.97-71.23,11.4-87.48c-9.1-13.99-42.55-10.25-47.19-7.92Z"/><g><g><path class="cls-39" d="M484.91,455.09c.56-1.15,.85-1.73,1.41-2.88,4.4-2.21,6.69-3.36,11.11-5.41-.67,1.54-1.04,2.33-1.8,3.93-3.09,1.35-4.65,2.05-7.65,3.44-.02,.05-.04,.07-.06,.12,1.07,2.48,1.54,3.84,2.6,6.69-.81,1.62-1.2,2.43-1.92,4.01-1.54-4.27-2.14-6.32-3.68-9.89Z"/><path class="cls-39" d="M505.17,467.24c3.67-1.08,5.59-1.65,9.49-2.71,.03-.05,.04-.08,.07-.13-1.62-3.17-2.48-4.82-4.1-8,.77-1.69,1.13-2.53,1.78-4.14,2.13,3.93,4.25,7.87,6.35,11.81-.69,1.26-1.05,1.9-1.8,3.17-4.74,1.35-9.46,2.78-14.17,4.22,.95-1.66,1.44-2.51,2.38-4.22Z"/></g><path class="cls-39" d="M499.04,447.22c.01,.33,.02,.49,.02,.82,.02,.71-.16,1.51-.52,2.28-2.01,4.31-4.19,8.54-6.33,12.79-.39,.78-.91,1.48-1.49,1.99-.27,.24-.4,.36-.67,.59,.29,.13,.44,.2,.74,.34,1.44,.67,2.19,1.02,3.72,1.73,.31,.15,.47,.22,.79,.37,.01-.37,.02-.55,.04-.92,.03-.79,.27-1.64,.67-2.44,1.2-2.36,1.83-3.57,3.03-5.97,1.86,.86,2.02,3.32,2.02,3.32,.85-1.67,1.28-2.51,2.09-4.18-1.46-.8-2.75-.5-3.63-.09,.86-1.74,1.29-2.61,2.09-4.31,1.25,.48,1.88,.73,3.18,1.25-.93,.32-1.51,.87-1.51,.87,2.57,.55,2.9,3.59,2.9,3.59,.64-1.31,.95-1.97,1.55-3.26,.16-.36,.25-.54,.41-.89,.18-.39,.27-.59,.44-.98,.35-.8,.86-1.5,1.47-2.01,.28-.24,.42-.35,.7-.59-5.06-2.11-7.29-3.01-11.69-4.3Z"/></g><g class="cls-26"><path class="cls-40" d="M505.68,435.58s1.35,7.88,20.52,8.29c15.94,.34-9.04,35.57-13.81,44.97-4.77,9.4-32.89,20.76-32.89,20.76l5.69,13.29,75.12,2.64,12.08-40.54s2.5-29.51-3.38-43.9c-5.87-14.39-28.19-18.68-28.19-18.68,0,0-34.9,4.89-35.14,13.18Z"/></g><g><g><path class="cls-44" d="M519.91,415.7c-3.59,10.57-10.37,22.85,5.13,22.85s14.54-4.85,18.13-15.42c3.59-10.57,1.29-20.8-5.13-22.85s-14.54,4.85-18.13,15.42Z"/><g><g><path class="cls-17" d="M465.72,311.81s11.02-10.47,37.72-5.71,33.88,6.35,33.88,6.35c0,0,41.35,5.93,59.7,21.19,18.35,15.25,29.62,18.82,29.62,18.82,0,0,2.55,14.61-.33,25.74-2.89,11.13-12.55,20.42-27.83,19.75,0,0-5.2,29.62-60.78,29.33-55.58-.29-83.84-29.91-84.71-53.26-.87-23.35,7.78-29.82,7.78-29.82l6.36-24.45-1.39-7.93Z"/><path class="cls-44" d="M453.06,366.07s4.23,41.39,50.38,46.44c46.15,5.05,77.29-13.22,90.66-67.59l9.48,10.4s19.12-5.59,24.32,7.55c0,0,1.58,40.7-29.43,35.07,0,0-6.86,35.94-74.87,29.33-68.01-6.61-73.73-42.72-70.55-61.21Z"/><path class="cls-3" d="M541.82,342.29s-10.39,27.11-.1,31.72c10.29,4.61,18.16,2.57,22.82-10.24,4.66-12.82,4.46-15.54,2.1-21.59-2.36-6.05-5.19-7.86-9.76-9.01-4.57-1.15-13.65,4.44-15.06,9.13Z"/><path class="cls-3" d="M471.69,329.47s-8.73,26.77,.8,31.31c9.53,4.54,15.88,1.02,20.2-11.58s5.07-13.78,2.88-19.73c-2.19-5.95-5.67-6.24-9.9-7.37s-12.67,2.76-13.98,7.37Z"/><polygon class="cls-45" points="506.5 358.68 513.76 380.47 498.84 376.26 506.5 358.68"/><path class="cls-41" d="M463.75,314.34s19.14-14.84,53.86-7.23c39.41,8.65,75.2,24.17,75.2,24.17l21.25,13.63,8.18,1.95s5.51-23.98,3.76-32.53-12.83-37.97-39.33-48.75c-26.5-10.78-36.67-16.02-49.5-16.31-12.83-.29-50.7,5.87-54.78,13.57s-14.36,32.7-14.36,32.7c0,0-10.11,13.54-8.65,16.26,1.46,2.72,4.37,2.53,4.37,2.53Z"/><path class="cls-11" d="M591.59,270.74s18.85,19.16,20.27,38.19c1.42,19.03-3.72,32.19-3.72,32.19l12.78,6.65,3.14-6.6s4-22.5,2.28-30.52c-1.72-8.02-10.69-19.96-16.86-27.22-6.17-7.26-17.9-12.69-17.9-12.69Z"/><path class="cls-3" d="M491.91,303.86c.19-.29,3.11-3.99,3.98-8.31,.87-4.32,1.85-7.29,1.85-7.29,0,0,11.84-.42,12.71-.42s27.38,5.85,27.67,6.08,5.63,6.54,3.88,12.27c-1.75,5.73-5.68,7.83-5.92,6.89s-16.88-5.65-24.77-6.31c-7.89-.66-16.18-.19-16.18-.19l-3.23-2.72Z"/><path class="cls-46" d="M500.21,398.17c1.91,.42,3.88,.62,5.84,.62,5.06,0,10.05-1.35,13.88-3.87,3.4-2.24,5.54-5.17,6.19-8.47l-5.04-.99c-.47,2.43-2.42,4.15-3.97,5.17-4.14,2.72-10.34,3.71-15.81,2.52-8.34-1.81-13.3-7.54-12.05-13.92l-5.04-.99c-1.79,9.14,4.94,17.52,16,19.92Z"/><polygon class="cls-47" points="490.08 374.07 499.14 377.57 513.76 380.47 500.68 375.63 506.23 358.42 490.08 374.07"/><path class="cls-47" d="M506.5,358.68l7.15,21.11s.03,.05,.05,.07c-.33-6.63-3.65-15.59-7.2-21.19Z"/><g><path class="cls-32" d="M537.01,314.34c.14,0,.28,0,.42-.01,4.78-.28,6.21-6.11,6.75-8.31,.82-3.33,.63-7.99-1.73-10.35-.43-.43-.95-.84-1.55-1.24-2.2-7.34-7.07-13.59-16.74-16.2-3.07-3.37-9.15-10.67-8.87-15.38,0,0-2.65,4.49-3.15,9.97-7.45-13.58-25.7-8.42-25.7-8.42,3.36,.21,11.08,15.22,11.88,17.72-6.12-.92-10.75,2.9-10.75,2.9,5.2,1.05,7.81,2.31,9.12,3.27-.88,.49-1.52,1.33-1.74,2.35-.99,4.61-4.28,12.27-4.66,13.16-.39,.73-.41,1.54-.04,2.22,.82,1.51,2.57,1.57,7.27,1.72,3.66,.12,8.67,.28,15,1.13,7.8,1.05,13.39,2.71,17.47,3.92,3.11,.92,5.24,1.56,7.02,1.56Zm-39.37-10.37c-1.17-.04-2.37-.08-3.27-.14,1.13-2.7,3.37-8.32,4.24-12.26,2.85-.65,11.3-.58,20.81,.7,10.35,1.39,17.96,3.66,20.36,6.07,.93,.93,1.47,3.79,.74,6.79-1.17,4.77-2.45,5.39-3.31,5.44-1.2,.07-3.38-.58-6.14-1.39-4.2-1.25-9.95-2.95-18.04-4.04-6.52-.88-11.85-1.05-15.38-1.16Z"/><path class="cls-32" d="M501.95,295.55c-.86-.04-1.58,.63-1.62,1.48-.04,.86,.63,1.58,1.48,1.62,.86,.04,1.58-.63,1.62-1.48s-.63-1.58-1.48-1.62Z"/><path class="cls-32" d="M511.39,295.96c-.86-.04-1.58,.63-1.62,1.48s.63,1.58,1.48,1.62c.86,.04,1.58-.63,1.62-1.48,.04-.86-.63-1.58-1.48-1.62Z"/><path class="cls-32" d="M520.8,297.28c-.86-.04-1.58,.63-1.62,1.48-.04,.86,.63,1.58,1.48,1.62,.86,.04,1.58-.63,1.62-1.48,.04-.86-.63-1.58-1.48-1.62Z"/><path class="cls-32" d="M531.64,301.31c.04-.86-.63-1.58-1.48-1.62-.86-.04-1.58,.63-1.62,1.48-.04,.86,.63,1.58,1.48,1.62,.86,.04,1.58-.63,1.62-1.48Z"/><path class="cls-32" d="M652.16,372.13c-.54-4.93-4.07-8.61-7.42-11.74-5.98-5.21-12.67-9.34-19.6-13.04,1.17-4.86,5.27-22.84,3.69-31.02-5.2-27.01-25.5-43.9-42.26-53.5,.35-1.96,.34-6.53-6.43-8.95-4.48-1.6-7.51,.05-9.06,1.38-15.01-6.2-28.67-8.86-35.07-9.02-17.41-.44-44.5,6.4-52.7,13.3-7.85,6.6-16.05,30.65-17.48,34.95-1.68,2.3-7.39,10.31-8.14,14.09-1.03,5.18,1.56,10.66,6.12,13.37-1.33,5.32-2.26,10.79-2.9,16.23-.68,1.3-1.4,2.65-2.09,4.01-7.12,13.55-11.23,29.71-6.71,44.78,6.45,19.2,29.39,33.03,47.92,38.4,18.07,5.26,37.61,5.8,55.84,1.03,3.62-.94,7.18-2.08,10.65-3.46-4.6,.76-9.14,1.5-13.74,2.02-9.99,1.16-20.12,1.59-30.13,.62-21.37-2.15-43.07-10.74-57.65-26.86-3.46-3.93-6.48-8.29-8.02-13.24-.49-1.66-.87-3.37-1.14-5.08-1.63-10.09,.56-20.39,4.47-29.77,.04,2.24,.18,4.48,.46,6.71,.61-3.03,1.89-9.14,2.56-12.16,2.53-11.99,5.82-23.77,9.78-35.36h-.02c6.81-4.46,12.96-5.18,12.58-5.18-13.5-.02-20.37,4.55-23,6.9-.06-.66-.04-1.32,.09-1.97,.42-2.12,4.63-8.51,7.48-12.38l.25-.33,.13-.39c2.44-7.49,10.08-28.01,16.03-33.01,7.33-6.17,33.11-12.5,49.26-12.1,7.87,.2,27.49,4.46,46.63,15.05,2.86,1.58,5.85,3.39,8.86,5.44,1.29,2.26,2.85,5.69,4.07,10.5,2.2,8.72,3.64,23.77-1.64,46.51-13.9-7.17-30.8-12.37-45.56-13.93,14.95,4.91,29.73,10.67,43.37,18.49-.52,4.07-.7,14.21,8.02,23.28,0,0-2.12,16.48-.74,16.58,2.57,.17,8.84-12.64,10.86-27.25,1.12,.55,2.57,1.27,3.38,1.68,1.44,.72,2.87,1.46,4.3,2.21,2.36,1.85,4.7,4.31,6.34,7.48,2.89,5.6,3.04,12.35,.44,20.06-5.95,17.65-17.11,19.64-22.56,19.47,2.48-6.09,3.83-12.69,4.03-19.12,.1-2.68,.06-5.35-.23-8.02-1.58,5.12-2.89,10.17-4.53,15.05-5.07,15.7-12.21,27.04-25.83,36.63,11.24-2.62,19.5-10.47,24.58-20.24,.71,.08,1.57,.14,2.54,.14,2.04,0,4.59-.26,7.33-1.13,5.42-1.72,12.62-6.2,17.5-17.67,.36,.06,.68,.11,1.02,.17,4.65,.66,9.3,.89,13.98,0,5.32-.95,10.63-4.51,10.14-10.64Zm-54.79-90.47c-.74-2.88-1.59-5.28-2.45-7.25,12.75,9.48,25.12,23.4,28.87,42.89,1.16,6.05-1.64,20.3-3.35,27.62-1.59-.8-3.19-1.6-4.8-2.38-1.08-.51-3.24-1.5-4.32-2-4.3-3.83-9.67-7.43-15.66-10.67,5.55-23.57,4.02-39.19,1.7-48.22Z"/><path class="cls-32" d="M610.23,378.17l-1.42,.64s.48,.13,1.17,.16c0,0,0,0,0,0h0s-2.26,5.13,1.68,6.03c3.95,.9,5.56-2.4,5.56-2.4,0,0-1.57,1.48-3.09,1.08-.83-.22-1.46-.35-1.82-.69,2.97-.62,5.06-5.42,5.74-9.49,.48-2.92,1.27-5.41,1.19-7.31,2.25,.44,2.55,5.19,2.55,5.19,0,0,2.17-6.19-2.97-8.13-1.77-.67-3.07-.36-4.02,.33-.91,.59-1.72,1.68-2.16,3.21-.52-.2-.89-.31-.89-.31l.75,.88s2.64,2.97,2.01,6.3c-.62,3.33-4.27,4.51-4.27,4.51Z"/></g><g><path class="cls-14" d="M567.56,294.51c-.15,.85-.56,1.62-1.18,2.23-.29,.28-.43,.43-.73,.71,.54,.1,.81,.15,1.35,.25,2.61,.51,3.88,.81,6.39,1.45,.52,.13,.77,.2,1.28,.34-.16-.39-.24-.59-.41-.98-.35-.84-.46-1.74-.31-2.59,.43-2.52,.64-3.78,1.06-6.29,2.92,.84,4.2,3.39,4.2,3.39,.27-1.73,.4-2.6,.66-4.32-2.13-.84-3.71-.51-4.69-.07,.3-1.82,.45-2.73,.76-4.55,1.88,.51,2.8,.78,4.58,1.36-.99,.32-1.49,.89-1.49,.89,3.44,.61,4.91,3.79,4.91,3.79,.17-1.34,.25-2,.41-3.33,.04-.37,.07-.55,.11-.91,.05-.4,.07-.61,.12-1.01,.1-.82,.41-1.54,.87-2.05,.22-.24,.32-.35,.54-.58-5.3-2.41-10.89-3.92-16.54-5.24,.15,.39,.23,.59,.38,.98,.33,.84,.42,1.75,.25,2.63-.55,2.82-.8,4.2-1.3,6.96-.7-.57-1.48-.71-1.48-.71,1.16,1.34,.88,3.97,.73,4.94-.19,1.08-.28,1.62-.47,2.7Z"/><path class="cls-14" d="M586.38,292.59c-.6-.67-1.25-.92-1.25-.92,.99,1.48,.85,4.04,.75,5.06-.15,1.13-.22,1.7-.39,2.84-.13,.85-.48,1.59-1.02,2.15-.25,.26-.38,.39-.64,.66,3.24,1.16,4.81,1.78,7.81,3.05-.15-.42-.23-.63-.38-1.04-.32-.88-.44-1.81-.35-2.66,.12-1.14,.18-1.71,.29-2.84,.12-1,.49-3.41,1.54-3.97,0,0-.57-.28-1.2-.14,.19-2.69,.26-4.01,.34-6.56,.03-.77,.23-1.42,.56-1.85,.16-.2,.23-.3,.38-.5-2.36-1.49-3.67-2.19-6.5-3.47,.15,.39,.22,.59,.37,.98,.32,.83,.45,1.7,.39,2.5-.25,2.64-.38,3.98-.7,6.7Z"/><path class="cls-14" d="M563.93,311.46c-.13,.61-.43,1.16-.87,1.6-.21,.21-.31,.31-.52,.52,1.81,.38,2.7,.6,4.48,1.06,.32,.08,.47,.12,.79,.21,.32,.08,.48,.13,.79,.21,.5-2.24,.74-3.35,1.19-5.54,.73,2.51,1.07,3.79,1.71,6.38,5.66,1.79,11.22,3.8,16.77,5.89,.34,.13,.51,.19,.85,.32-.09-.3-.14-.44-.24-.74-.2-.64-.24-1.31-.12-1.94,.06-.31,.09-.46,.15-.76,.05-.28,.08-.41,.13-.69,.19-1,.28-1.5,.46-2.49,0,0-1.68,1.31-3.96,.11,0,0,.17,.61,.72,1.31-1.24-.47-1.87-.71-3.13-1.17,.26-1.26,.39-1.89,.63-3.14,1.74,.84,2.47,2.58,2.47,2.58,.25-1.27,.37-1.91,.59-3.17-1.24-.59-2.2-.56-2.87-.37,.24-1.24,.35-1.86,.57-3.1,1.24,.46,1.85,.69,3.06,1.16-.7,.21-1.05,.61-1.05,.61,2.36,.58,3.36,2.94,3.36,2.94,.16-.99,.24-1.49,.39-2.48,.04-.27,.06-.41,.1-.68,.04-.3,.07-.45,.11-.76,.09-.62,.33-1.16,.69-1.55,.17-.18,.25-.27,.41-.45-3.31-1.4-6.66-2.62-10.04-3.82-1.02,1.82-1.55,2.73-2.63,4.57,1.76,.58,2.62,.88,4.33,1.51-2.95,2.13-5.92,4.22-8.89,6.31,1.62-2.64,2.41-3.95,3.93-6.54-1.76-.58-2.65-.86-4.45-1.39,1.4-2.35,2.09-3.52,3.42-5.84-1.4-.42-2.1-.62-3.53-1.01-.38,2.1-.58,3.16-.99,5.29-.76-2.46-1.15-3.66-1.97-6.04-.03,0-.04-.01-.07-.02-.32-.08-.48-.12-.81-.19-1.82-.42-2.74-.61-4.61-.96,.12,.26,.18,.39,.3,.65,.26,.55,.34,1.16,.24,1.75-.35,1.93-.53,2.9-.9,4.86-.48-.41-1.02-.52-1.02-.52,.78,.94,.57,2.76,.44,3.49-.16,.81-.24,1.22-.41,2.04Z"/></g><path class="cls-48" d="M483.89,357.06c-.43-.04-.85-.12-1.28-.23-2-.54-3.67-1.82-4.7-3.61-1.03-1.79-1.3-3.88-.77-5.88l2.77-10.3c.54-2,1.82-3.67,3.61-4.7s3.88-1.3,5.88-.77c2,.54,3.67,1.82,4.7,3.61,1.03,1.79,1.3,3.88,.77,5.88l-2.77,10.3c-1,3.7-4.52,6.05-8.21,5.7Z"/><path class="cls-46" d="M468.89,341.02c-.05-2.06,.14-4.11,.44-6.15,.33-2.06,.65-4.14,1.34-6.12,3.28-9.21,15.12-11.94,22.35-5.45,3.43,3.05,5.25,7.83,4.6,12.4-.09,.96-.48,2.23-.72,3.17-.49,1.86-1.86,6.89-2.38,8.81-.67,2.17-1.74,7.02-2.73,9.01-2.48,5.17-8.29,8.44-13.98,7.83-4.32-.35-9.14-3.06-9.76-7.67,2.36,1.78,4.58,3.43,7.34,4.36,6.38,2.05,13.04-1.99,14.36-8.51,.76-2.94,2.33-8.84,3.11-11.77,.25-.95,.94-3.47,1.19-4.39,.57-2.13,.47-4.42-.28-6.49-2.49-7.21-11.79-9.77-17.6-4.75-1.71,1.48-3.04,3.49-3.81,5.66,0,0-.5,1.42-.5,1.42-.64,1.81-2.31,6.76-2.95,8.64h0Z"/><path class="cls-48" d="M554.67,370.52c-.46-.04-.92-.12-1.38-.24-2.14-.56-3.94-1.88-5.05-3.71-1.11-1.83-1.42-3.97-.85-6l2.92-10.5c.57-2.04,1.93-3.73,3.85-4.78s4.15-1.31,6.29-.75c2.14,.56,3.94,1.88,5.05,3.71,1.11,1.83,1.42,3.97,.85,6l-2.92,10.5c-1.05,3.77-4.81,6.15-8.77,5.77Z"/><path class="cls-46" d="M538.46,354.08c-.04-2.1,.18-4.19,.49-6.26,.36-2.1,.69-4.21,1.42-6.23,3.47-9.38,16.14-12.12,23.91-5.46,3.7,3.13,5.66,8.02,4.99,12.67-.09,.98-.51,2.28-.75,3.24-.52,1.89-1.96,7.02-2.51,8.98-.71,2.21-1.83,7.15-2.88,9.18-2.63,5.26-8.84,8.57-14.94,7.93-4.63-.38-9.81-3.17-10.5-7.88,2.54,1.82,4.92,3.52,7.89,4.48,6.85,2.13,13.96-1.96,15.34-8.62,.8-2.99,2.45-9,3.28-11.99,.27-.97,.99-3.54,1.25-4.47,.59-2.17,.48-4.51-.33-6.62-2.71-7.36-12.69-10.03-18.88-4.93-1.83,1.5-3.24,3.55-4.06,5.76l-.53,1.45c-.68,1.84-2.49,6.87-3.18,8.78h0Z"/></g><path class="cls-29" d="M590.46,369.08c1.38,.32,1.38,3.46,3.22,3.87,1.84,.41,2.35-1.6,4.03-.03s-5.72,12.35-8.54,10.27c-2.82-2.08-1.29-14.72,1.28-14.12Z"/></g></g><path class="cls-32" d="M515.02,427.31s-5.4,14.34,13.43,12.1c0,0-9.7-.24-10.7-4.45-1-4.21,1.14-8.2,1.14-8.2"/><path class="cls-32" d="M541.41,427.75s-1.43,6.87-4.97,8.82c0,0,5.65-1.51,8.43-8.82"/></g><path class="cls-8" d="M422.72,508.32h38.77v15.66h-53.83v-.6c0-8.32,6.75-15.07,15.07-15.07Z"/><ellipse class="cls-17" cx="460.84" cy="510.84" rx="16.71" ry="12.04"/><path class="cls-17" d="M480.48,506.12s-6.46-9.25-23.34-8.81c-16.88,.44-40.67,13.65-36.12,18.65,4.55,4.99,19.38-5.87,27.46-3.96,8.08,1.91,23.93,13.83,24.52,13.52s11.65-9.35,12.16-9.41-4.67-9.98-4.67-9.98Z"/><path class="cls-17" d="M558.19,473.05c-5.39,15.33-15.64,36.8-29.21,46.51-12.28,8.34-37.73,8.71-52.39,8.94-6.12,.03-12.22-.12-18.33-.45,0,0-3.72-.23-3.72-.23l-.84-18.09c15.38-2.9,32.27-5.75,47.19-10.11,3.6-1.18,7.34-2.13,10.34-4.17,.03-.05,.11-.1,.11-.13-.02-.02,.03-.06-.07-.03-.03,0-.06,.02-.09,.03,.26-.29,.59-.6,1.05-1.15,4.8-5.89,8.36-13.17,11.87-20.21,1.69-3.45,3.91-8.28,5.53-11.8,0,0,28.55,10.89,28.55,10.89h0Z"/><g class="cls-18"><path class="cls-44" d="M521.2,481.79s9.2,9.84,14.88,13.53c-1.17,3.69-9.01,15.24-14.88,17.79s-54.23,1.76-64.41,5.68,1.37,5.19,1.37,5.19h61.07s17.23-4.4,18.41-5.78c1.17-1.37,19.75-17.75,20.54-18.17,.8-.42,3.64-16.87,2.12-17.06-1.52-.2-19.48-7.05-19.48-7.05l-19.63,5.87Z"/></g><path class="cls-32" d="M513.02,475.33s12.88,21.93,45.85,17.72c0,0,17.08-47.63-.58-57.04-17.66-9.42-37.8,22.93-45.27,39.33Z"/><path class="cls-17" d="M427.49,516.15l-7.95-2.36c2.34-7.88,9.05-16.84,16.24-18.17,6.37-1.18,15.69,2.86,16.73,3.32l-3.37,7.57,1.69-3.79-1.68,3.79c-3.26-1.45-9.1-3.25-11.85-2.75-2.94,.54-7.97,6.18-9.8,12.37Z"/><path class="cls-17" d="M419.17,519.01l-5.6-6.11c8.63-7.91,21.4-13.53,21.94-13.76l3.31,7.6c-.2,.09-12.08,5.33-19.66,12.27Zm19.66-12.27l-1.66-3.8,1.66,3.8s0,0,0,0h0Z"/><path class="cls-17" d="M349.22,516.97c0,9.35,56.38,9.35,56.38,0s-12.62-16.93-28.19-16.93-28.19,7.58-28.19,16.93Z"/><path class="cls-44" d="M450.24,485.02c-1.59,2.32-41.8,22.36-44.63,25.82-2.84,3.45-5.58,5.31-5.58,5.31l-13.12-1.17s4.56-4.54,8.42-6.66,46.4-26.72,46.4-26.72l8.52,3.43Z"/><path class="cls-44" d="M425.5,518.6s14.24-6.46,16.81-4.85c2.57,1.62,4.26,6.46,8.52,7.19,4.26,.73,11.45-1.91,11.45-1.91,0,0,5.51-1.63,0-1.51-5.51,.12-11.53,.63-13.43-1.57-1.91-2.2-2.94-4.94-6.31-5.12s-15.42,4.53-17.84,5.92c-2.42,1.39-1.91,3.6-1.91,3.6l2.72-1.76Z"/><path class="cls-44" d="M419.11,511.84s11.44-8.08,18.06-9.79c0,0-12.04,1.77-21.14,10.82-7.4,7.36,3.67,2.3,3.67,2.1s-.59-3.13-.59-3.13Z"/><path class="cls-44" d="M423.26,505.7s5.2-3.49,13.23-5.45c0,0-4.84-.23-10.97,2.37,0,0-1.58,1.52-2.26,3.08Z"/><rect class="cls-8" x="301.09" y="375.94" width="177.63" height="112.89" rx="17.57" ry="17.57"/><rect class="cls-39" x="290.24" y="375.94" width="177.63" height="112.89" rx="17.57" ry="17.57"/><rect class="cls-6" x="318.75" y="404.15" width="101.29" height="62.85" rx="17.57" ry="17.57"/><rect class="cls-8" x="312.57" y="404.15" width="101.29" height="62.85" rx="17.57" ry="17.57"/><polygon class="cls-13" points="377.75 511.8 377.75 422.5 353.45 422.5 353.45 511.8 320.92 511.8 320.92 519.8 426.1 519.8 426.1 511.8 377.75 511.8"/><polygon class="cls-6" points="369.4 511.8 369.4 422.5 345.1 422.5 345.1 511.8 312.57 511.8 312.57 519.8 409.52 519.8 409.52 511.8 369.4 511.8"/><rect class="cls-39" x="281.39" y="519.8" width="343.27" height="11.42"/><rect class="cls-13" x="540.83" y="519.8" width="83.84" height="11.42"/><path class="cls-32" d="M524.98,481.66c-3.32,7.59-10.44,14.24-17.98,17.54,4.66-5.27,8.55-11.03,11.88-17.19,0,0,1.34-2.44,1.34-2.44l4.76,2.09h0Z"/><path class="cls-32" d="M522.39,526.45l-1.64-4.93c14.47-4.8,27.99-31.75,28.13-32.02l4.66,2.31c-.59,1.19-14.62,29.16-31.14,34.64Z"/><path class="cls-32" d="M447.02,498.8c10.75-5.64,26.85-3.67,33.47,7.32-2.73-1.48-5.26-2.87-7.92-3.92-8.1-3.38-16.8-3.92-25.54-3.4h0Z"/><path class="cls-32" d="M478.67,504.05c7.34-1.78,14.65-3.76,21.77-6.25,4.23-1.48,8.45-3.24,12.55-5.06,0,0,.94,1.7,.94,1.7-.94,.6-2.02,1.24-2.98,1.81-7.12,3.9-14.98,6.44-22.96,7.83-3.04,.52-6.11,.87-9.22,.89l-.1-.92h0Z"/><path class="cls-32" d="M422.58,506.12s4.33-9.23,12.81-11.35c9.97-2.49,16.68,2.55,16.68,2.55l-3.44,1.06s-6.95-3.94-13.37-1.95c-6.42,1.98-9.94,8.41-9.94,8.41l-2.74,1.28Z"/><path class="cls-32" d="M436.48,500.25s-16.77,6.01-21.15,11.55h-2.91s9.8-9.04,24.06-11.55Z"/><path class="cls-32" d="M439.01,501.64s-13.08,5.08-17.53,10.15h-2.91s8.53-7.64,20.44-10.15Z"/><path class="cls-32" d="M426.1,519.01s13.23-6.3,16.57-4.61c3.34,1.69,1.97,4.57,7.56,7.08h2.58s-4.35-2.48-5.81-5.32c-1.45-2.85-4.62-5.14-9.02-3.75-4.4,1.4-11.9,4.44-11.9,4.44v2.16Z"/><path class="cls-32" d="M445.14,488.34s-36.07,19.73-37.8,21.11c-1.73,1.39-1.73,2.34-1.73,2.34h-4.54s3.57-3.67,9.6-6.96c6.03-3.29,26.67-14.42,28.8-16.5h5.67Z"/><path class="cls-32" d="M377.75,500.03s3.89,.05,5.42,.85c0,0-1.54-1.76-5.42-1.74"/><path class="cls-32" d="M396.9,488.84l-12.94,9.92s3.49-4.88,10.23-9.92h2.7Z"/></g></g><g id="softwares"><g><rect class="cls-30" x="422.04" y="11.79" width="73.18" height="73.18"/><g><path d="M465.61,72.18c1.85-1.08,3.7-2.15,5.58-3.24,.09,.13,.17,.24,.25,.36,.91,1.4,2,2.62,3.6,3.25,1.85,.73,3.74,.83,5.59,.03,1.7-.72,2.4-2.37,1.8-4.02-.24-.66-.68-1.2-1.27-1.54-1.01-.58-2.04-1.11-3.09-1.62-1.66-.8-3.35-1.52-5-2.35-1.16-.59-2.18-1.4-3.06-2.37-1.44-1.57-2.15-3.45-2.32-5.55-.14-1.66,.05-3.26,.73-4.78,1.07-2.37,2.9-3.94,5.35-4.73,3.17-1.01,6.34-.93,9.39,.48,1.79,.83,3.58,2.7,4.38,4.43-1.77,1.14-3.55,2.28-5.36,3.44-.16-.26-.31-.49-.47-.73-.68-1.02-1.53-1.82-2.78-2.09-.78-.17-1.56-.19-2.33,.03-2.58,.73-2.55,3.73-1.31,4.94,.71,.7,1.58,1.14,2.46,1.55,1.91,.88,3.84,1.72,5.73,2.65,1.47,.72,2.79,1.68,3.89,2.92,1.37,1.55,2.01,3.39,2.16,5.43,.11,1.59-.03,3.14-.63,4.62-1.04,2.58-2.99,4.18-5.54,5.11-2.16,.79-4.4,.97-6.68,.8-2.24-.17-4.35-.74-6.3-1.88-1.98-1.16-3.51-2.76-4.61-4.77-.05-.08-.09-.17-.13-.25,0-.02-.01-.05-.03-.13Z"/><path d="M441.28,72.93c1.88-1.14,3.73-2.26,5.62-3.4,.08,.13,.15,.25,.23,.36,.48,.68,.91,1.4,1.45,2.03,.76,.88,1.79,1.17,2.92,1.15,.28,0,.57-.03,.85-.08,1.54-.29,2.35-1.21,2.54-2.88,.06-.55,.08-1.12,.08-1.67,0-7.51,0-15.03,0-22.54q0-.53,.55-.53c2,0,4,0,6,0,.31,0,.41,.08,.41,.4,0,7.73,0,15.46-.01,23.18,0,1.63-.22,3.22-.83,4.75-.92,2.31-2.53,3.95-4.86,4.78-3.29,1.17-6.59,1.13-9.81-.28-2.38-1.05-4.01-2.88-5.15-5.25Z"/></g></g><g><polygon class="cls-34" points="817.31 344.55 854.63 358.17 848.91 408.1 817.31 425.75 817.31 344.55"/><polygon class="cls-35" points="817.31 344.55 779.65 358.34 785.03 407.59 817.31 425.75 817.31 344.55"/><path class="cls-3" d="M793.68,406.52c7.88-17.67,15.68-35.17,23.62-52.96,7.89,17.75,15.67,35.26,23.54,52.96-1.41,0-2.64,0-3.88,0-1.38,0-2.77-.03-4.15,.01-.62,.02-.92-.17-1.15-.77-1.33-3.4-2.73-6.77-4.05-10.18-.27-.7-.61-.93-1.36-.92-6.03,.03-12.06,.03-18.09,0-.68,0-.97,.22-1.21,.83-1.33,3.4-2.73,6.77-4.05,10.18-.26,.67-.61,.87-1.3,.86-2.57-.04-5.14-.02-7.93-.02Zm23.62-35.6c-2.32,5.59-4.54,10.93-6.78,16.32h13.57c-2.26-5.43-4.47-10.75-6.79-16.32Z"/></g><g><path class="cls-16" d="M146.25,356.59c0-5.37-4.35-9.72-9.72-9.72h-51.66c-5.37,0-9.72,4.35-9.72,9.72,0,25.42-9.95,24.59-9.95,24.59v4.86s9.95-1.53,9.95,24.31c0,5.37,4.35,9.72,9.72,9.72h51.66c5.37,0,9.72-4.35,9.72-9.72,0-25.84,9.95-24.31,9.95-24.31v-4.86s-9.95,.83-9.95-24.59Z"/><path class="cls-3" d="M117.37,382.17c3.82,.66,6.83,2.41,8.17,6.19,1.62,4.53,.21,10.66-5.82,13.13-2.02,.83-4.13,1.24-6.31,1.25-5.33,.03-10.65,.05-15.98,.08-.92,0-.92,0-.92-.94,0-12.39,0-24.78,0-37.17,0-.85,0-.85,.82-.85,5.06,0,10.12-.03,15.19,.01,2.83,.02,5.56,.56,7.91,2.28,2.93,2.13,4.14,5.1,3.65,8.61-.53,3.77-2.78,6.24-6.48,7.32-.06,.02-.11,.04-.23,.09Zm-14.43,9.25h0c0,1.86,.01,3.71,0,5.57,0,.5,.14,.66,.66,.66,2.63-.02,5.27,.02,7.9-.03,1.07-.02,2.16-.13,3.21-.37,2.25-.51,4.06-1.65,4.65-4.06,.2-.8,.24-1.66,.2-2.48-.08-1.68-.8-3.05-2.22-4.02-1.48-1.01-3.18-1.39-4.92-1.44-2.94-.08-5.88-.04-8.82-.07-.51,0-.67,.17-.66,.67,.02,1.86,0,3.71,0,5.57Zm0-16.72c0,1.69,.01,3.39,0,5.08,0,.45,.14,.6,.6,.59,1.92-.02,3.84,.03,5.76-.02,1.22-.04,2.45-.12,3.64-.37,2.91-.62,5.19-2.42,4.8-6.27-.17-1.71-1.03-2.98-2.55-3.78-1.14-.6-2.39-.84-3.66-.86-2.65-.04-5.31,0-7.96-.02-.5,0-.63,.16-.62,.63,.02,1.67,0,3.35,0,5.02Z"/></g><g><polygon class="cls-2" points="175.37 204.26 198.76 210.33 222.43 204.26 227.5 145.05 170.11 145.05 175.37 204.26"/><polygon class="cls-33" points="198.76 149.76 222.43 149.76 217.8 199.99 198.76 205.71 198.76 149.76"/><polygon class="cls-3" points="180.74 157.13 181.35 164.47 208.82 164.47 208.21 171.48 181.9 171.48 182.64 178.82 207.4 178.82 206.58 188.07 198.42 190.11 190.4 187.8 189.99 182.09 182.64 182.09 183.6 193.92 198.76 198.07 213.65 193.92 216.78 157.13 180.74 157.13"/><polygon class="cls-2" points="192.05 132.89 192.05 129 181.94 129 181.94 129.99 181.94 132.89 181.94 136.16 181.94 138.29 181.94 140.06 192.05 140.06 192.05 136.16 186.25 136.16 186.25 132.89 192.05 132.89"/><polygon class="cls-2" points="193.59 129 193.59 132.94 197.94 136.52 193.59 136.52 193.59 140.06 204.07 140.06 204.07 136.39 199.35 132.8 204.07 132.8 204.07 129 193.59 129"/><polygon class="cls-2" points="205.36 129 205.36 132.94 209.71 136.52 205.36 136.52 205.36 140.06 215.83 140.06 215.83 136.39 211.12 132.8 215.83 132.8 215.83 129 205.36 129"/></g><g><polygon class="cls-42" points="715.88 205.01 739.36 211.11 763.11 205.01 768.21 145.59 710.61 145.59 715.88 205.01"/><polygon class="cls-15" points="739.36 150.32 763.11 150.32 758.47 200.74 739.36 206.47 739.36 150.32"/><polygon class="cls-3" points="757.31 165.05 757.83 157.47 721.78 157.47 723.73 179.59 748.61 179.59 747.69 188.91 739.8 191.26 731.51 189.01 731.1 183.17 723.83 183.17 724.96 194.33 739.8 198.74 754.75 194.74 756.49 172.32 730.38 172.32 729.77 164.95 757.31 165.05"/><polygon class="cls-42" points="723.49 129.83 723.49 133.41 720.14 133.41 720.14 129.83 716.59 129.83 716.59 140.61 720.14 140.61 720.14 137.09 723.49 137.09 723.49 140.61 727.04 140.61 727.04 129.83 723.49 129.83"/><polygon class="cls-42" points="738.78 129.83 728.85 129.83 728.85 133.48 732.16 133.48 732.16 140.61 735.67 140.61 735.67 133.48 738.78 133.48 738.78 129.83"/><polygon class="cls-42" points="744.04 135.39 744.04 140.61 740.42 140.61 740.42 129.83 744.28 129.83 746.6 133.89 749.16 129.83 752.71 129.83 752.71 140.61 749.09 140.61 749.09 135.52 746.56 139.04 744.04 135.39"/><polygon class="cls-42" points="758.1 137.3 758.1 129.83 754.86 129.83 754.86 137.3 754.86 139.89 754.86 140.78 763.42 140.78 763.42 137.3 758.1 137.3"/></g><g><rect class="cls-28" x="309.24" y="123.57" width="67.11" height="67.11" rx="10.55" ry="10.55"/><g><path class="cls-3" d="M350.73,178.38c3.11,.7,5.89,1.53,8.74,1.89,1.66,.21,3.58-.3,4.1-2.29,.55-2.08-1.11-3.07-2.62-3.88-1.76-.95-3.67-1.64-5.43-2.59-3.65-1.97-5.33-5.09-4.82-8.73,.49-3.5,3.15-6.35,7.16-6.9,2.94-.4,5.98-.16,8.97-.1,1.79,.04,2.86,.83,2.52,2.91-.18,1.1-.03,2.25-.03,3.14-2.52-.46-4.83-.99-7.17-1.26-.94-.11-2.01,.21-2.9,.62-2,.92-2.3,2.85-.61,4.26,.99,.83,2.23,1.35,3.37,1.99,1.88,1.05,3.95,1.85,5.64,3.16,4.73,3.67,3.82,11.19-1.64,13.6-4.6,2.02-9.36,1.7-14.04,.17-.53-.17-1.12-1.04-1.18-1.64-.16-1.58-.06-3.19-.06-4.35Z"/><path class="cls-3" d="M339.89,184.96h-6.77v-23.73h-8.35v-5.25h23.39v5.16h-8.27v23.83Z"/></g></g><g><g><path class="cls-20" d="M669.31,37.11c-1.58-.72-3.21-1.33-4.77-2.09-.87-.42-1.14-1.45-.58-2.23,.35-.47,1-.94,1.56-.99,1.11-.1,2.26-.01,3.36,.18,1.01,.18,1.97,.6,3.01,.94,.4-1.57,.8-3.16,1.22-4.74,.12-.44-.19-.53-.49-.64-3.26-1.22-6.59-1.57-9.96-.64-2.9,.8-5.12,2.46-6,5.51-.57,1.99-.34,3.86,.91,5.57,1.13,1.54,2.68,2.47,4.38,3.2,1.31,.56,2.63,1.08,3.93,1.66,.62,.28,.94,.81,.98,1.49,.07,1.13-.6,1.88-1.87,2.07-2.33,.36-4.5-.25-6.63-1.11-.39-.16-.78-.34-1.22-.54-.07,.23-.14,.37-.18,.53-.34,1.36-.63,2.73-1.03,4.07-.19,.64-.02,.91,.57,1.13,4.39,1.65,8.78,1.89,13.21,.18,3.34-1.29,5.25-5.17,4.28-8.61-.71-2.52-2.48-3.95-4.71-4.97Z"/><path class="cls-20" d="M651.96,20.29c-2.09-1.78-4.66-2.42-7.31-2.66-4.21-.38-8.4-.11-12.59,.4-.68,.08-.81,.32-.81,.94,.02,10.52,.01,21.05,.01,31.57,0,.26,.02,.51,.03,.79h7.52v-11.92c.33,0,.56,0,.8,0,1.62-.04,3.25,.02,4.85-.14,2.51-.26,4.87-1.03,6.92-2.57,2.47-1.86,3.69-4.41,3.97-7.44,.32-3.53-.63-6.62-3.39-8.98Z"/><path class="cls-12" d="M665.56,4.11h-25.6c-9.8,0-17.75,7.95-17.75,17.74v25.6c0,9.8,7.95,17.74,17.75,17.74h25.6c9.8,0,17.74-7.95,17.74-17.74V21.86c0-9.8-7.94-17.74-17.74-17.74Zm-10.21,25.15c-.27,3.03-1.49,5.59-3.97,7.44-2.04,1.54-4.41,2.31-6.92,2.57-1.61,.16-3.23,.1-4.85,.14-.24,0-.47,0-.8,0v11.92h-7.52c-.01-.28-.03-.53-.03-.79,0-10.52,0-21.05-.01-31.57,0-.62,.13-.86,.81-.94,4.18-.51,8.38-.79,12.59-.4,2.66,.24,5.22,.88,7.31,2.66,2.77,2.35,3.71,5.44,3.39,8.98Zm14.4,21.42c-4.43,1.71-8.83,1.47-13.21-.18-.59-.22-.76-.49-.57-1.13,.39-1.34,.69-2.71,1.03-4.07,.04-.16,.1-.31,.18-.53,.44,.19,.82,.38,1.22,.54,2.13,.86,4.3,1.47,6.63,1.11,1.27-.19,1.93-.94,1.87-2.07-.04-.69-.36-1.22-.98-1.49-1.3-.58-2.62-1.1-3.93-1.66-1.71-.73-3.26-1.66-4.38-3.2-1.25-1.71-1.48-3.58-.91-5.57,.88-3.05,3.1-4.71,6-5.51,3.37-.93,6.7-.58,9.96,.64,.3,.11,.61,.2,.49,.64-.41,1.58-.81,3.17-1.22,4.74-1.04-.34-2-.76-3.01-.94-1.1-.2-2.26-.28-3.36-.18-.56,.05-1.21,.52-1.56,.99-.57,.77-.29,1.8,.58,2.23,1.56,.76,3.19,1.37,4.77,2.09,2.23,1.02,4.01,2.45,4.71,4.97,.97,3.44-.94,7.31-4.28,8.61Z"/></g><path class="cls-12" d="M643.88,23.46c2.91,.44,4.46,2.89,3.88,5.81-.4,1.99-1.61,3.27-3.49,3.89-1.59,.52-3.22,.56-4.88,.34-.48-.06-.59-.28-.58-.71,.02-1.45,0-2.9,0-4.35,0-1.38,.03-2.76-.02-4.13-.02-.65,.2-.94,.83-.93,1.42,.02,2.86-.12,4.25,.09Z"/></g><g><path class="cls-43" d="M729.92,737.59v25.6c0,9.8-7.94,17.74-17.74,17.74h-25.6c-9.8,0-17.75-7.95-17.75-17.74v-25.6c0-9.8,7.95-17.74,17.75-17.74h25.6c9.8,0,17.74,7.95,17.74,17.74Zm-8.41,16.94c.26-1.88,.27-3.75-.14-5.61-1.09-4.9-4.94-7.54-9.88-6.74-3.19,.52-5.39,2.4-6.73,5.24-2.05,4.34-2.16,8.83-.5,13.31,1.15,3.08,3.42,5.01,6.64,5.76,1.56,.36,3.14,.38,4.73,.24,1.31-.11,2.59-.36,3.8-.89,.41-.18,.61-.43,.6-.9-.02-1.08,0-2.16,0-3.24,0-.14-.02-.28-.04-.49-.19,.05-.3,.06-.4,.1-1.79,.76-3.67,.94-5.58,.81-2.83-.19-4.72-1.82-5.3-4.6-.1-.49-.12-1.01-.21-1.5-.07-.43,.07-.57,.52-.57,2.22,.02,4.45,.02,6.67,0,1.65-.02,3.3-.08,4.95-.13,.71-.03,.79-.09,.89-.78Zm-20.32,11.82c.69,0,.71-.03,.52-.7-1.39-4.72-2.79-9.44-4.18-14.16-1.68-5.68-3.36-11.35-5.02-17.03-.1-.34-.26-.47-.62-.46-.93,.02-1.87,0-2.8,0s-1.9,.02-2.85,0c-.41-.01-.52,.15-.56,.54-.06,.73-.09,1.48-.29,2.18-1.24,4.46-2.53,8.9-3.79,13.35-1.48,5.2-2.97,10.41-4.46,15.61-.17,.61-.12,.67,.53,.67,1.24,0,2.49-.02,3.73,.01,.46,.01,.66-.15,.77-.6,.68-2.66,1.41-5.31,2.09-7.97,.11-.42,.26-.58,.72-.58,2.78,.02,5.56,.02,8.34,0,.41,0,.6,.12,.71,.53,.71,2.66,1.46,5.3,2.16,7.95,.13,.51,.37,.68,.89,.67,1.37-.03,2.75-.01,4.12-.01Z"/><path class="cls-24" d="M721.37,748.92c.41,1.86,.41,3.73,.14,5.61-.1,.69-.18,.75-.89,.78-1.65,.06-3.3,.12-4.95,.13-2.23,.02-4.45,.02-6.67,0-.45,0-.59,.14-.52,.57,.08,.5,.11,1.01,.21,1.5,.59,2.77,2.47,4.41,5.3,4.6,1.92,.13,3.79-.05,5.58-.81,.1-.04,.21-.06,.4-.1,.02,.21,.04,.35,.04,.49,0,1.08-.01,2.16,0,3.24,.01,.46-.18,.72-.6,.9-1.22,.53-2.49,.77-3.8,.89-1.59,.14-3.17,.12-4.73-.24-3.22-.75-5.49-2.68-6.64-5.76-1.67-4.48-1.55-8.97,.5-13.31,1.34-2.83,3.55-4.72,6.73-5.24,4.95-.79,8.79,1.84,9.88,6.74Zm-5.04,2.51c.32,0,.42-.2,.38-.44-.14-.81-.19-1.67-.48-2.42-1.16-2.94-4.87-2.8-6.35-.86-.82,1.08-1.17,2.31-1.34,3.66,.1,.04,.15,.06,.19,.06,2.54,0,5.07,0,7.6,0Z"/><path class="cls-43" d="M716.7,750.99c.04,.25-.05,.44-.38,.44-2.53,0-5.06,0-7.6,0-.04,0-.09-.03-.19-.06,.16-1.34,.52-2.58,1.34-3.66,1.48-1.95,5.19-2.08,6.35,.86,.3,.75,.34,1.61,.48,2.42Z"/><path class="cls-24" d="M701.72,765.65c.2,.66,.17,.7-.52,.7-1.37,0-2.75-.02-4.12,.01-.52,.01-.75-.16-.89-.67-.7-2.65-1.45-5.3-2.16-7.95-.11-.41-.29-.53-.71-.53-2.78,.02-5.56,.02-8.34,0-.45,0-.61,.15-.72,.58-.69,2.66-1.41,5.31-2.09,7.97-.12,.45-.31,.61-.77,.6-1.24-.03-2.49,0-3.73-.01-.65,0-.7-.07-.53-.67,1.49-5.21,2.98-10.41,4.46-15.61,1.27-4.45,2.55-8.9,3.79-13.35,.2-.7,.23-1.45,.29-2.18,.03-.38,.14-.55,.56-.54,.95,.02,1.9,0,2.85,0s1.87,.01,2.8,0c.36-.01,.52,.12,.62,.46,1.67,5.68,3.35,11.36,5.02,17.03,1.39,4.72,2.79,9.44,4.18,14.16Zm-16.02-13.2h7.01c-1.2-4.59-2.38-9.14-3.56-13.65-1.14,4.52-2.3,9.08-3.45,13.65Z"/><path class="cls-43" d="M692.71,752.45h-7.01c1.16-4.57,2.31-9.12,3.45-13.65,1.18,4.51,2.36,9.06,3.56,13.65Z"/></g><g><path class="cls-9" d="M51.28,210.75c2.35,0,4.15,1.71,4.13,3.95-.02,2.18-1.8,3.8-4.16,3.81-2.39,0-4.03-1.59-4.02-3.89,.02-2.3,1.65-3.86,4.05-3.87Z"/><path class="cls-9" d="M55.15,222.4c-.02,7.76-.02,15.51,0,23.27,0,.55-.12,.79-.73,.78-2.1-.03-4.2-.03-6.29,0-.61,0-.73-.24-.73-.78,.02-3.89,.01-7.78,.01-11.68s.02-7.68-.01-11.51c0-.73,.21-.96,.94-.95,1.99,.04,3.98,.03,5.96,0,.64-.01,.87,.2,.87,.85Z"/><path class="cls-9" d="M43.15,245.76c.05,.18,.09,.36,.15,.63-.3,.03-.53,.06-.77,.06-2.21,0-4.42-.03-6.63,.02-.69,.01-.96-.23-1.14-.87-.68-2.41-1.43-4.81-2.12-7.22-.16-.56-.41-.73-.98-.73-2.79,.03-5.58,.03-8.37,0-.55,0-.77,.19-.91,.7-.65,2.42-1.34,4.83-2.02,7.25-.07,.27-.16,.52-.25,.77h-7.95c.27-.95,.51-1.82,.77-2.68,1.99-6.49,3.99-12.97,5.98-19.45,1.16-3.8,2.33-7.6,3.46-11.4,.16-.53,.4-.68,.93-.67,2.93,.02,5.86,.02,8.79,0,.42,0,.69,.05,.84,.55,2.65,8.59,5.32,17.17,7.98,25.76,.75,2.42,1.49,4.85,2.24,7.28Zm-19.37-13.97h7.43c-1.29-4.61-2.56-9.12-3.84-13.68-1.2,4.57-2.38,9.09-3.59,13.68Z"/><path class="cls-31" d="M64.33,215.81v25.6c0,9.8-7.95,17.74-17.74,17.74H20.99c-9.8,0-17.74-7.95-17.74-17.74v-25.6c0-9.8,7.95-17.74,17.74-17.74h25.6c9.8,0,17.74,7.95,17.74,17.74Zm-8.92-1.11c.02-2.24-1.78-3.95-4.13-3.95-2.4,0-4.04,1.57-4.05,3.87-.02,2.3,1.63,3.89,4.02,3.89,2.37,0,4.14-1.63,4.16-3.81Zm-.27,30.97c-.01-7.76-.01-15.52,0-23.27,0-.65-.22-.86-.87-.85-1.99,.03-3.98,.04-5.96,0-.73-.02-.94,.22-.94,.95,.03,3.83,.01,7.67,.01,11.51s0,7.78-.01,11.68c0,.55,.12,.79,.73,.78,2.1-.03,4.2-.03,6.29,0,.61,.01,.73-.24,.73-.78Zm-11.84,.71c-.06-.27-.1-.45-.15-.63-.74-2.42-1.48-4.85-2.24-7.28-2.66-8.59-5.34-17.17-7.98-25.76-.15-.49-.42-.55-.84-.55-2.93,.01-5.86,.02-8.79,0-.53,0-.77,.15-.93,.67-1.13,3.8-2.3,7.6-3.46,11.4-1.99,6.48-3.99,12.97-5.98,19.45-.27,.86-.5,1.73-.77,2.68h7.95c.08-.25,.17-.51,.25-.77,.68-2.42,1.37-4.83,2.02-7.25,.14-.52,.36-.71,.91-.7,2.79,.03,5.58,.03,8.37,0,.57,0,.82,.17,.98,.73,.69,2.41,1.44,4.81,2.12,7.22,.18,.64,.45,.88,1.14,.87,2.21-.05,4.42-.02,6.63-.02,.24,0,.47-.03,.77-.06Z"/><path class="cls-31" d="M31.21,231.79h-7.43c1.21-4.59,2.39-9.11,3.59-13.68,1.28,4.55,2.55,9.07,3.84,13.68Z"/></g><g><path class="cls-34" d="M389.22,641.75c-.49,4.21-.98,8.41-1.46,12.6-.77,6.66-1.54,13.32-2.31,19.99-.67,5.77-1.34,11.55-2,17.33-.06,.5-.29,.75-.7,.98-10.54,5.8-21.07,11.61-31.59,17.43-.41,.23-.71,.24-1.13,0-10.49-5.8-20.98-11.59-31.48-17.36-.56-.31-.79-.65-.86-1.3-.68-6.12-1.4-12.24-2.11-18.36-.77-6.66-1.54-13.32-2.31-19.98-.42-3.61-.83-7.22-1.28-10.83-.08-.66,.04-.97,.73-1.22,12.43-4.38,24.85-8.8,37.27-13.19,.35-.12,.82-.13,1.17,0,12.51,4.42,25.01,8.86,37.51,13.3,.31,.11,.68,.15,.54,.62Zm-45.06,24.27c-1.09,1.64-2.16,3.25-3.22,4.87-.1,.15-.09,.38-.09,.57,0,2.16-.02,4.31,.01,6.47,0,.27,.19,.62,.41,.78,1.54,1.14,3.11,2.24,4.67,3.36,.74,.53,.88,1,.53,1.95-1.84-1.31-3.67-2.61-5.54-3.95-.23,1.07-.09,1.79,.85,2.37,1.43,.87,2.75,1.92,4.11,2.9,.79,.56,.92,.99,.59,1.99-1.84-1.31-3.67-2.62-5.54-3.95-.25,1.06-.11,1.77,.83,2.35,1.44,.89,2.78,1.95,4.16,2.94,.74,.53,.87,.98,.54,1.95-1.84-1.31-3.67-2.61-5.63-4,0,.98-.02,1.78,.01,2.58,0,.24,.11,.51,.24,.72,1.3,2.15,2.79,4.15,4.68,5.83,.33,.29,.63,.46,1.09,.45,2.35-.02,4.71,0,7.06-.03,.33,0,.71-.17,.96-.39,1.78-1.56,3.19-3.42,4.49-5.4,.79-1.2,.33-2.39,.52-3.76-2.01,1.43-3.84,2.73-5.71,4.06-.23-.98-.08-1.63,.79-2.17,1.44-.9,2.78-1.95,4.16-2.94,.79-.56,.95-1.11,.59-2.13-1.84,1.31-3.67,2.62-5.54,3.95-.21-.98-.08-1.63,.79-2.18,1.42-.89,2.74-1.93,4.11-2.9,.85-.61,1-1.08,.65-2.17-1.84,1.31-3.67,2.61-5.54,3.94-.22-.96-.09-1.61,.74-2.14,1.5-.96,2.91-2.07,4.38-3.08,.43-.3,.58-.62,.56-1.13-.03-1.11-.12-2.23,.01-3.33,.29-2.41-.33-4.48-1.92-6.31-.53-.62-.93-1.35-1.41-2.07-.42,.25-.8,.43-1.13,.67-.63,.47-1.31,.6-2.08,.58-1.76-.04-3.53-.08-5.29,0-1.25,.06-2.36-.16-3.35-.94-.15-.12-.34-.18-.56-.31Zm7.06-.31c1.14-.08,2.32,.09,3.31-.27,5.62-2,11.2-4.13,16.79-6.19,.4-.15,.58-.37,.68-.77,.5-2.14,1.02-4.28,1.53-6.41,.26-1.09,.51-2.19,.79-3.34-.24,0-.39-.01-.54,0-4.65,.37-9.3,.73-13.94,1.12-.6,.05-.88-.08-1.11-.66-.89-2.22-1.87-4.41-2.76-6.63-.27-.67-.76-.49-1.18-.44-.13,.02-.3,.45-.31,.69-.02,2.59-.01,5.18-.01,7.77,0,1.06-.43,1.51-1.58,1.63,0-1.57,0-3.14,0-4.7,0-1.61,.01-3.22-.01-4.83,0-.2-.17-.55-.31-.57-.44-.07-.89-.03-1.35-.03v23.62Zm-24.3-17.01c-.01,.16-.03,.2-.02,.24,.77,3.24,1.53,6.48,2.34,9.71,.06,.24,.4,.5,.66,.6,5.46,2.05,10.94,4.07,16.4,6.13,1.08,.41,2.13,.2,3.29,.25v-.97c0-7.21,0-14.42,0-21.62,0-.97,0-.93-1-.98-.6-.03-.73,.19-.72,.75,.03,2.92,.01,5.84,.01,8.75,0,.23-.02,.45-.04,.7-1.49-.43-1.57-.52-1.57-1.9,0-2.55,0-5.1,0-7.64,0-.21-.07-.52-.21-.6-.48-.26-1.07,0-1.3,.54-.94,2.23-1.89,4.45-2.81,6.68-.18,.45-.42,.56-.88,.52-3.47-.3-6.95-.58-10.42-.87-1.23-.1-2.47-.19-3.73-.29Zm12.77,34.27c0-.43,0-.67,0-.9,0-3.24,.07-6.49-.03-9.73-.05-1.52,.24-2.79,1.25-3.95,.59-.67,1.05-1.47,1.56-2.21-1.08,.09-2.08,.29-3.06,.53-.41,.1-.69,.04-.98-.27-.56-.61-1.22-1.13-1.74-1.77-1.47-1.8-3.31-2.97-5.56-3.52-.45-.11-.88-.3-1.37-.46-.02,.23-.04,.36-.04,.49,0,4.35,0,8.71,.02,13.06,0,.29,.21,.66,.44,.85,2.95,2.48,5.91,4.94,8.87,7.41,.16,.13,.33,.25,.63,.48Zm21.39-.05c.25-.16,.34-.21,.42-.27,3.06-2.55,6.13-5.09,9.17-7.66,.21-.18,.35-.55,.35-.83,.02-4.29,.02-8.57,.01-12.86,0-.18-.04-.37-.06-.63-1.52,.56-2.97,1.08-4.41,1.62-.17,.06-.31,.23-.45,.37-1.23,1.23-2.48,2.44-3.69,3.7-.37,.38-.7,.47-1.21,.33-.94-.25-1.89-.42-3-.66,.21,.33,.32,.51,.44,.69,.68,.98,1.4,1.95,2.05,2.95,.21,.32,.36,.75,.36,1.13,.03,3.74,.02,7.49,.02,11.23,0,.25,0,.5,0,.89Zm7.39-35c-.09-.16-.11-.23-.15-.27-1.77-1.77-3.53-3.55-5.32-5.31-.17-.17-.5-.25-.76-.25-1.53-.02-3.05-.01-4.58,0-.2,0-.4,.03-.69,.06,.95,2.18,1.85,4.25,2.79,6.31,.07,.15,.43,.25,.64,.23,1.28-.09,2.56-.23,3.84-.35,1.38-.13,2.76-.27,4.23-.42Zm-36.29-.06c.29,.06,.39,.09,.5,.1,2.58,.25,5.16,.49,7.74,.75,.41,.04,.58-.13,.73-.47,.82-1.9,1.65-3.79,2.48-5.69,.06-.13,.07-.28,.12-.48-1.89,0-3.71,0-5.54,.01-.18,0-.38,.18-.53,.33-.95,.93-1.88,1.88-2.83,2.81-.85,.84-1.7,1.68-2.67,2.63Zm7.46,42.84c.02-.18,.05-.28,.05-.38,0-1.78,.02-3.57-.02-5.35,0-.25-.21-.56-.41-.74-1.46-1.27-2.95-2.51-4.42-3.76-.14-.12-.3-.22-.47-.34-.04,.12-.08,.17-.08,.23,0,1.59-.02,3.17,0,4.76,0,.21,.15,.45,.3,.61,1.54,1.56,3.1,3.11,4.65,4.66,.1,.1,.23,.17,.4,.3Zm21.44-.11c.07,.04,.14,.07,.21,.11,1.06-1.08,2.12-2.17,3.18-3.25,.65-.67,1.56-1.23,1.89-2.03,.34-.82,.12-1.88,.13-2.83,.01-.79,0-1.59,0-2.54-.3,.23-.47,.35-.63,.48-1.31,1.11-2.6,2.26-3.95,3.31-.65,.51-.9,1.05-.86,1.87,.07,1.62,.02,3.25,.02,4.88Z"/><path class="cls-3" d="M344.16,666.02c.22,.12,.41,.19,.56,.31,.99,.78,2.1,1,3.35,.94,1.76-.08,3.53-.05,5.29,0,.77,.02,1.45-.11,2.08-.58,.33-.24,.7-.42,1.13-.67,.48,.72,.87,1.45,1.41,2.07,1.59,1.83,2.2,3.9,1.92,6.31-.13,1.1-.05,2.22-.01,3.33,.02,.51-.13,.83-.56,1.13-1.47,1.01-2.88,2.12-4.38,3.08-.84,.53-.96,1.18-.74,2.14,1.87-1.33,3.7-2.63,5.54-3.94,.35,1.09,.2,1.56-.65,2.17-1.37,.97-2.69,2.01-4.11,2.9-.87,.54-1,1.2-.79,2.18,1.87-1.33,3.7-2.63,5.54-3.95,.36,1.02,.2,1.57-.59,2.13-1.38,.99-2.73,2.04-4.16,2.94-.86,.54-1.01,1.19-.79,2.17,1.86-1.33,3.7-2.63,5.71-4.06-.18,1.37,.27,2.56-.52,3.76-1.3,1.98-2.71,3.84-4.49,5.4-.25,.22-.63,.39-.96,.39-2.35,.03-4.71,0-7.06,.03-.45,0-.76-.16-1.09-.45-1.89-1.68-3.38-3.68-4.68-5.83-.13-.21-.23-.48-.24-.72-.03-.8-.01-1.6-.01-2.58,1.96,1.39,3.79,2.7,5.63,4,.33-.97,.2-1.42-.54-1.95-1.38-.99-2.72-2.05-4.16-2.94-.94-.58-1.08-1.29-.83-2.35,1.87,1.33,3.7,2.64,5.54,3.95,.33-1,.2-1.43-.59-1.99-1.36-.97-2.68-2.02-4.11-2.9-.94-.58-1.08-1.3-.85-2.37,1.87,1.33,3.7,2.64,5.54,3.95,.35-.94,.21-1.42-.53-1.95-1.56-1.11-3.13-2.22-4.67-3.36-.22-.16-.41-.51-.41-.78-.03-2.16-.02-4.31-.01-6.47,0-.19,0-.42,.09-.57,1.05-1.62,2.13-3.23,3.22-4.87Z"/><path class="cls-3" d="M351.22,665.71v-23.62c.46,0,.91-.05,1.35,.03,.13,.02,.3,.37,.31,.57,.02,1.61,.01,3.22,.01,4.83,0,1.57,0,3.13,0,4.7,1.15-.12,1.58-.57,1.58-1.63,0-2.59,0-5.18,.01-7.77,0-.24,.17-.67,.31-.69,.43-.05,.92-.23,1.18,.44,.89,2.22,1.87,4.41,2.76,6.63,.23,.57,.51,.71,1.11,.66,4.65-.4,9.29-.75,13.94-1.12,.15-.01,.29,0,.54,0-.27,1.16-.53,2.25-.79,3.34-.51,2.14-1.03,4.27-1.53,6.41-.09,.4-.27,.62-.68,.77-5.6,2.07-11.17,4.19-16.79,6.19-.99,.35-2.17,.19-3.31,.27Z"/><path class="cls-3" d="M326.92,648.7c1.27,.1,2.5,.19,3.73,.29,3.47,.28,6.95,.56,10.42,.87,.46,.04,.69-.06,.88-.52,.91-2.24,1.87-4.46,2.81-6.68,.22-.53,.81-.8,1.3-.54,.14,.08,.21,.39,.21,.6,.01,2.55,0,5.1,0,7.64,0,1.38,.08,1.47,1.57,1.9,.01-.25,.04-.47,.04-.7,0-2.92,.02-5.84-.01-8.75,0-.56,.12-.77,.72-.75,1,.04,1,0,1,.98,0,7.21,0,14.42,0,21.62v.97c-1.16-.05-2.22,.16-3.29-.25-5.46-2.06-10.94-4.08-16.4-6.13-.26-.1-.6-.35-.66-.6-.81-3.23-1.57-6.47-2.34-9.71,0-.04,0-.09,.02-.24Z"/><path class="cls-3" d="M339.69,682.97c-.3-.23-.48-.35-.63-.48-2.96-2.46-5.93-4.92-8.87-7.41-.23-.19-.44-.56-.44-.85-.03-4.35-.02-8.71-.02-13.06,0-.13,.02-.25,.04-.49,.49,.17,.92,.35,1.37,.46,2.25,.56,4.09,1.73,5.56,3.52,.52,.64,1.18,1.16,1.74,1.77,.29,.32,.58,.37,.98,.27,.99-.24,1.98-.44,3.06-.53-.52,.74-.97,1.54-1.56,2.21-1.01,1.15-1.3,2.43-1.25,3.95,.1,3.24,.03,6.49,.03,9.73,0,.24,0,.47,0,.9Z"/><path class="cls-3" d="M361.08,682.92c0-.39,0-.64,0-.89,0-3.74,.01-7.49-.02-11.23,0-.38-.15-.81-.36-1.13-.65-1-1.36-1.97-2.05-2.95-.12-.17-.23-.36-.44-.69,1.11,.24,2.06,.41,3,.66,.5,.13,.84,.05,1.21-.33,1.21-1.26,2.45-2.47,3.69-3.7,.14-.14,.28-.3,.45-.37,1.44-.54,2.89-1.07,4.41-1.62,.03,.26,.06,.44,.06,.63,0,4.29,0,8.57-.01,12.86,0,.28-.14,.66-.35,.83-3.04,2.57-6.11,5.12-9.17,7.66-.08,.07-.18,.12-.42,.27Z"/><path class="cls-3" d="M368.46,647.92c-1.47,.14-2.85,.28-4.23,.42-1.28,.12-2.56,.26-3.84,.35-.21,.02-.57-.08-.64-.23-.94-2.06-1.83-4.13-2.79-6.31,.29-.03,.49-.06,.69-.06,1.53,0,3.05-.01,4.58,0,.26,0,.59,.08,.76,.25,1.79,1.75,3.55,3.53,5.32,5.31,.04,.04,.06,.11,.15,.27Z"/><path class="cls-3" d="M332.17,647.86c.97-.95,1.82-1.79,2.67-2.63,.94-.94,1.88-1.88,2.83-2.81,.15-.14,.35-.33,.53-.33,1.83-.02,3.65-.01,5.54-.01-.05,.21-.07,.35-.12,.48-.82,1.9-1.66,3.79-2.48,5.69-.15,.34-.31,.51-.73,.47-2.58-.27-5.16-.5-7.74-.75-.1,0-.2-.04-.5-.1Z"/><path class="cls-3" d="M339.64,690.7c-.18-.13-.3-.2-.4-.3-1.56-1.55-3.11-3.1-4.65-4.66-.15-.16-.3-.4-.3-.61-.02-1.59,0-3.17,0-4.76,0-.06,.04-.11,.08-.23,.17,.12,.33,.22,.47,.34,1.48,1.25,2.96,2.49,4.42,3.76,.2,.18,.41,.48,.41,.74,.04,1.78,.02,3.56,.02,5.35,0,.1-.03,.2-.05,.38Z"/><path class="cls-3" d="M361.08,690.59c0-1.63,.05-3.25-.02-4.88-.03-.82,.21-1.36,.86-1.87,1.35-1.06,2.64-2.2,3.95-3.31,.16-.13,.33-.25,.63-.48,0,.95,0,1.74,0,2.54-.01,.95,.21,2.01-.13,2.83-.33,.8-1.24,1.36-1.89,2.03-1.06,1.08-2.12,2.17-3.18,3.25-.07-.04-.14-.07-.21-.11Z"/></g><g><circle class="cls-3" cx="491.91" cy="751.96" r="42.41"/><path class="cls-39" d="M505.1,792.23c-.38-.38-.78-.74-1.14-1.13-.54-.6-.8-1.31-.79-2.14,.02-3.63,.07-7.27,0-10.9-.03-1.42-.26-2.85-.55-4.25-.36-1.75-1.36-3.12-2.83-4.14-.13-.09-.27-.19-.51-.36,.94-.12,1.75-.22,2.57-.34,2.33-.33,4.61-.8,6.84-1.56,5.18-1.76,8.54-5.24,9.91-10.54,1.11-4.28,1.49-8.62,.71-13.01-.51-2.9-1.66-5.54-3.62-7.74-.93-1.05-1.16-2.04-.93-3.41,.41-2.51,.41-5.05-.37-7.52-.07-.21-.14-.42-.23-.63-.46-1.13-.67-1.26-1.88-1.15-1.62,.14-3.14,.66-4.57,1.37-1.89,.93-3.71,1.97-5.57,2.95-.2,.1-.47,.21-.66,.16-2.76-.7-5.58-.92-8.42-.98-3.43-.07-6.86,.06-10.23,.79-.63,.14-1.26,.32-1.87,.54-.32,.11-.54,.08-.81-.11-2.56-1.78-5.24-3.35-8.29-4.14-.93-.24-1.9-.3-2.86-.44-.42-.06-.66,.11-.84,.53-1.16,2.81-1.43,5.72-1.03,8.71,.1,.75,.26,1.5,.45,2.24,.09,.35,.04,.59-.18,.86-.64,.82-1.28,1.65-1.87,2.51-1.63,2.38-2.3,5.06-2.37,7.91-.1,3.6,.18,7.15,1.38,10.58,1.93,5.52,5.9,8.91,11.33,10.73,1.34,.45,2.71,.8,4.09,1.09,1.36,.29,2.76,.44,4.17,.66-.05,.07-.11,.15-.18,.21-1.51,1.3-2.6,2.85-2.99,4.85-.04,.19-.26,.4-.45,.49-1.66,.79-3.42,.93-5.23,.85-2.33-.1-4.08-1.15-5.47-3-.97-1.29-2.02-2.54-3.16-3.69-1.18-1.2-2.69-1.7-4.4-1.45-.06,0-.12,0-.17,.02-.31,.17-.8,.3-.87,.55-.07,.24,.24,.67,.49,.9,.48,.43,1.06,.76,1.57,1.16,1.46,1.13,2.52,2.58,3.25,4.27,.62,1.42,1.29,2.81,2.37,3.95,1.78,1.88,4.04,2.71,6.56,2.78,1.65,.04,3.31-.1,5.05-.16,.01,.2,.05,.49,.05,.78,.02,2.24-.02,4.47,.06,6.71,.04,1.36-.49,2.37-1.53,3.17-.2,.16-.39,.33-.59,.5h-.11c-1.27-.53-2.56-1.01-3.8-1.59-8.81-4.14-15.44-10.55-19.79-19.26-3.33-6.66-4.69-13.74-4.17-21.17,.68-9.77,4.38-18.26,11.05-25.4,6.22-6.66,13.86-10.82,22.83-12.46,1.44-.26,2.91-.38,4.37-.57,.12-.02,.24-.06,.35-.1,1.79,0,3.58,0,5.37,0,.84,.11,1.68,.21,2.52,.32,6.49,.81,12.47,3.01,17.87,6.69,9.24,6.32,15.22,14.95,17.44,25.93,2.54,12.56-.19,24.01-8.08,34.13-4.86,6.23-11.11,10.61-18.55,13.3-.12,.04-.23,.11-.34,.17h-.34Z"/></g><g><path class="cls-5" d="M202.81,604.64v-31.28c0-4.77-2.54-9.17-6.67-11.56l-27.09-15.64c-4.13-2.38-9.22-2.38-13.34,0l-27.09,15.64c-4.13,2.38-6.67,6.79-6.67,11.56v31.28c0,4.77,2.54,9.17,6.67,11.56l27.09,15.64c4.13,2.38,9.22,2.38,13.34,0l27.09-15.64c4.13-2.38,6.67-6.79,6.67-11.56Z"/><g class="cls-38"><polygon class="cls-7" points="162.66 588.35 208.28 562.1 208.28 611.95 189.53 618.2 162.66 588.35"/><polygon class="cls-4" points="120.07 612.8 162.66 588.35 212.34 617.02 160.63 638.65 130.04 626.48 120.07 612.8"/></g><path class="cls-3" d="M185.83,574.97c-1,.61-1.9,1.2-2.84,1.74-2.67,1.53-5.36,3.02-8.01,4.58-.78,.46-1.26,.47-1.84-.34-3.19-4.46-7.59-6.2-12.96-5.52-5.54,.7-10.6,6.41-10.83,12.04-.27,6.9,4.1,12.81,11.06,13.88,5.15,.79,9.47-1.06,12.65-5.29,.29-.39,.57-.8,.99-1.38,3.92,2.26,7.81,4.5,11.66,6.73-2.79,7.85-15.96,14.74-25.11,13.87-13.96-1.34-24.37-12.26-25.13-25.09-.79-13.29,7.3-24.18,18.97-27.62,13.4-3.95,25.52,2.1,31.38,12.41Z"/><path class="cls-3" d="M196.03,585.08v-2.45h-2.04l.52-3.13h-2.28l-.52,3.13h-3.63l.52-3.13h-2.28l-.52,3.13h-2.61v2.45h2.2l-.65,3.92h-2.56v2.45h2.15l-.63,3.76h2.28l.63-3.76h3.63l-.63,3.76h2.28l.63-3.76h2.5v-2.45h-2.09l.65-3.92h2.45Zm-5.39,3.92h-3.63l.65-3.92h3.63l-.65,3.92Z"/></g><g><ellipse class="cls-1" cx="790.17" cy="571.68" rx="44.14" ry="44.07"/><g class="cls-27"><path class="cls-10" d="M756.72,536.06c6.83,6.99,88.41,89.15,88.41,89.15l23.31-77.79-37-26.29-63.22-2.84-11.49,11.36"/></g><g><g><circle class="cls-3" cx="756.72" cy="577.14" r="2.01"/><polygon class="cls-3" points="780.93 553.77 780.93 574.42 767.79 553.77 766.88 553.77 763.84 553.77 763.84 578.69 766.88 578.69 766.88 557.67 780.28 578.69 780.93 578.69 781.38 578.69 783.97 578.69 783.97 553.77 780.93 553.77"/><polygon class="cls-3" points="793.62 575.98 793.62 567.3 802.49 567.3 802.49 564.71 793.62 564.71 793.62 556.49 803.14 556.49 803.14 553.77 793.62 553.77 791.1 553.77 790.45 553.77 790.45 578.69 792.52 578.69 793.62 578.69 803.72 578.69 803.72 575.98 793.62 575.98"/><polygon class="cls-3" points="823.34 553.77 805.86 553.77 805.86 556.55 813.11 556.55 813.11 578.69 815.96 578.69 815.96 556.55 823.34 556.55 823.34 553.77"/></g><path class="cls-3" d="M787.97,587.68c-2.23,0-4.03,1.96-4.03,4.37s1.8,4.37,4.03,4.37,4.03-1.96,4.03-4.37-1.8-4.37-4.03-4.37Zm0,7.56c-1.47,0-2.67-1.46-2.67-3.27s1.2-3.27,2.67-3.27,2.67,1.46,2.67,3.27-1.2,3.27-2.67,3.27Z"/><path class="cls-3" d="M797.08,587.86c-.65,.26-1.18,.93-1.59,1.73v-1.6h-1.39v8.16h1.39v-5.02s.82-1.89,1.59-2.01c.77-.12,1.36,.16,1.36,.16v-1.42s-.56-.32-1.36,0Z"/><path class="cls-3" d="M806.82,592.51c.01-.15,.02-.31,.02-.46,0-2.41-1.71-4.37-3.81-4.37s-3.81,1.96-3.81,4.37,1.71,4.37,3.81,4.37c1.67,0,3.08-1.23,3.6-2.94h-1.36c-.42,1.04-1.27,1.76-2.24,1.76-1.25,0-2.29-1.18-2.49-2.73h6.28Zm-6.26-1.21c.24-1.48,1.25-2.6,2.47-2.6s2.23,1.11,2.47,2.6h-4.94Z"/><path class="cls-3" d="M782.42,594.44c-.71,.38-1.53,.6-2.41,.6-2.71,0-4.9-2.08-4.9-4.65s2.2-4.65,4.9-4.65c.88,0,1.7,.22,2.41,.6v-1.35c-.74-.28-1.56-.44-2.41-.44-3.51,0-6.36,2.66-6.36,5.93s2.85,5.93,6.36,5.93c.85,0,1.67-.16,2.41-.44v-1.54Z"/></g></g></g></svg>