<?xml version="1.0" encoding="UTF-8"?><svg id="angular" xmlns="http://www.w3.org/2000/svg" viewBox="0 0 74.98 81.2"><defs><style>.cls-1{fill:#fff;}.cls-2{fill:#c3002f;}.cls-3{fill:#dd0031;}</style></defs><polygon class="cls-2" points="37.66 0 74.98 13.62 69.26 63.54 37.66 81.2 37.66 0"/><polygon class="cls-3" points="37.66 0 0 13.78 5.38 63.04 37.66 81.2 37.66 0"/><path class="cls-1" d="M14.03,61.96c7.88-17.67,15.68-35.17,23.62-52.96,7.89,17.75,15.67,35.26,23.54,52.96-1.41,0-2.64,0-3.88,0-1.38,0-2.77-.03-4.15,.01-.62,.02-.92-.17-1.15-.77-1.33-3.4-2.73-6.77-4.05-10.18-.27-.7-.61-.93-1.36-.92-6.03,.03-12.06,.03-18.09,0-.68,0-.97,.22-1.21,.83-1.33,3.4-2.73,6.77-4.05,10.18-.26,.67-.61,.87-1.3,.86-2.57-.04-5.14-.02-7.93-.02ZM37.66,26.36c-2.32,5.59-4.54,10.93-6.78,16.32h13.57c-2.26-5.43-4.47-10.75-6.79-16.32Z"/></svg>