<?xml version="1.0" encoding="UTF-8"?><svg id="bootstrap" xmlns="http://www.w3.org/2000/svg" viewBox="0 0 90.98 73.2"><defs><style>.cls-1{fill:#fff;}.cls-2{fill:#7711f7;}</style></defs><path class="cls-2" d="M81.03,9.72c0-5.37-4.35-9.72-9.72-9.72H19.64c-5.37,0-9.72,4.35-9.72,9.72C9.92,35.14-.04,34.31-.04,34.31v4.86s9.95-1.53,9.95,24.31c0,5.37,4.35,9.72,9.72,9.72h51.66c5.37,0,9.72-4.35,9.72-9.72,0-25.84,9.95-24.31,9.95-24.31v-4.86s-9.95,.83-9.95-24.59Z"/><path class="cls-1" d="M52.15,35.3c3.82,.66,6.83,2.41,8.17,6.19,1.62,4.53,.21,10.66-5.82,13.13-2.02,.83-4.13,1.24-6.31,1.25-5.33,.03-10.65,.05-15.98,.08-.92,0-.92,0-.92-.94,0-12.39,0-24.78,0-37.17,0-.85,0-.85,.82-.85,5.06,0,10.12-.03,15.19,.01,2.83,.02,5.56,.56,7.91,2.28,2.93,2.13,4.14,5.1,3.65,8.61-.53,3.77-2.78,6.24-6.48,7.32-.06,.02-.11,.04-.23,.09Zm-14.43,9.25h0c0,1.86,.01,3.71,0,5.57,0,.5,.14,.66,.66,.66,2.63-.02,5.27,.02,7.9-.03,1.07-.02,2.16-.13,3.21-.37,2.25-.51,4.06-1.65,4.65-4.06,.2-.8,.24-1.66,.2-2.48-.08-1.68-.8-3.05-2.22-4.02-1.48-1.01-3.18-1.39-4.92-1.44-2.94-.08-5.88-.04-8.82-.07-.51,0-.67,.17-.66,.67,.02,1.86,0,3.71,0,5.57Zm0-16.72c0,1.69,.01,3.39,0,5.08,0,.45,.14,.6,.6,.59,1.92-.02,3.84,.03,5.76-.02,1.22-.04,2.45-.12,3.64-.37,2.91-.62,5.19-2.42,4.8-6.27-.17-1.71-1.03-2.98-2.55-3.78-1.14-.6-2.39-.84-3.66-.86-2.65-.04-5.31,0-7.96-.02-.5,0-.63,.16-.62,.63,.02,1.67,0,3.35,0,5.02Z"/></svg>