<?xml version="1.0" encoding="UTF-8"?><svg id="css" xmlns="http://www.w3.org/2000/svg" viewBox="0 0 78.86 111.68"><defs><style>.cls-1{fill:#0070ba;}.cls-2{fill:#fff;}.cls-3{fill:#29a8e0;}</style></defs><polygon class="cls-1" points="7.23 103.41 39.37 111.75 71.89 103.41 78.86 22.05 0 22.05 7.23 103.41"/><polygon class="cls-3" points="39.37 28.53 71.89 28.53 65.53 97.55 39.37 105.4 39.37 28.53"/><polygon class="cls-2" points="14.61 38.65 15.45 48.74 53.18 48.74 52.36 58.37 16.2 58.37 17.22 68.46 51.24 68.46 50.12 81.17 38.9 83.97 27.88 80.79 27.32 72.95 17.22 72.95 18.53 89.2 39.37 94.9 59.83 89.2 64.13 38.65 14.61 38.65"/><polygon class="cls-1" points="30.15 5.36 30.15 0 16.26 0 16.26 1.37 16.26 5.36 16.26 9.84 16.26 12.77 16.26 15.2 30.15 15.2 30.15 9.84 22.18 9.84 22.18 5.36 30.15 5.36"/><polygon class="cls-1" points="32.27 0 32.27 5.42 38.25 10.34 32.27 10.34 32.27 15.2 46.66 15.2 46.66 10.15 40.18 5.23 46.66 5.23 46.66 0 32.27 0"/><polygon class="cls-1" points="48.43 0 48.43 5.42 54.41 10.34 48.43 10.34 48.43 15.2 62.82 15.2 62.82 10.15 56.34 5.23 62.82 5.23 62.82 0 48.43 0"/></svg>