<?xml version="1.0" encoding="UTF-8"?><svg id="facebook" xmlns="http://www.w3.org/2000/svg" viewBox="0 0 46.62 46.62"><defs><style>.cls-1{fill:#5faaaa;}</style></defs><path class="cls-1" d="M24.88,46.62H5.23C2.34,46.62,0,44.28,0,41.39c0-12.05,0-24.11,0-36.16C0,2.34,2.34,0,5.23,0c12.05,0,24.11,0,36.16,0,2.89,0,5.23,2.34,5.23,5.23,0,12.05,0,24.11,0,36.16,0,2.89-2.34,5.23-5.23,5.23-3.06,0-6.11,0-9.17,0V28.57c.17,0,.28,0,.4,0,1.78,0,3.55,0,5.33,0,.2,0,.32-.03,.35-.27,.27-2.15,.55-4.29,.82-6.44,.05-.37,.04-.37-.33-.37-2.06,0-4.12,0-6.18,0-.12,0-.24,0-.38,0,0-.12-.02-.2-.02-.27,0-1.46,0-2.91,0-4.37,0-.3,.03-.61,.07-.9,.14-1.08,.96-1.97,2.03-2.17,.46-.09,.94-.12,1.41-.13,1.13-.02,2.25,0,3.38,0,.2,0,.29-.05,.29-.28,0-1.94,0-3.88,0-5.83,0-.19-.06-.28-.26-.29-.91-.06-1.82-.16-2.73-.18-1.64-.05-3.28-.16-4.9,.19-2.34,.51-4.19,1.71-5.4,3.81-.86,1.5-1.22,3.14-1.24,4.86-.03,1.73,0,3.46,0,5.19,0,.11,0,.23,0,.38-.15,0-.26,0-.38,0-1.8,0-3.59,0-5.39,0-.27,0-.35,.09-.34,.35,0,2.13,0,4.25,0,6.38,0,.2,.16,.36,.36,.36,1.8-.01,3.59,0,5.39,0h.36c0,.17,0,.29,0,.42,0,5.74,0,11.48,0,17.22,0,.14,0,.27,.01,.41Z"/></svg>