<?xml version="1.0" encoding="UTF-8"?><svg id="github" xmlns="http://www.w3.org/2000/svg" viewBox="0 0 47.97 46.65"><defs><style>.cls-1{fill:#5faaaa;}</style></defs><path class="cls-1" d="M31.62,46.65c-.22-.22-.45-.43-.66-.66-.32-.35-.46-.76-.46-1.24,.01-2.1,.04-4.21,0-6.31-.02-.82-.15-1.65-.32-2.46-.21-1.01-.79-1.81-1.64-2.4-.08-.05-.16-.11-.3-.21,.54-.07,1.02-.13,1.49-.2,1.35-.19,2.67-.47,3.96-.91,3-1.02,4.94-3.03,5.74-6.1,.64-2.48,.86-4.99,.41-7.53-.3-1.68-.96-3.21-2.1-4.49-.54-.61-.67-1.18-.54-1.97,.24-1.45,.24-2.92-.22-4.36-.04-.12-.08-.25-.13-.36-.26-.66-.39-.73-1.09-.67-.94,.08-1.82,.38-2.65,.79-1.09,.54-2.15,1.14-3.23,1.71-.11,.06-.27,.12-.38,.09-1.6-.4-3.23-.53-4.87-.57-1.99-.04-3.97,.04-5.92,.46-.37,.08-.73,.19-1.09,.31-.18,.06-.31,.05-.47-.07-1.48-1.03-3.04-1.94-4.8-2.4-.54-.14-1.1-.17-1.66-.25-.24-.03-.38,.07-.48,.31-.67,1.63-.83,3.32-.6,5.05,.06,.44,.15,.87,.26,1.3,.05,.2,.02,.34-.1,.5-.37,.48-.74,.95-1.08,1.45-.94,1.38-1.33,2.93-1.37,4.58-.06,2.08,.11,4.14,.8,6.13,1.12,3.19,3.42,5.16,6.56,6.21,.77,.26,1.57,.46,2.37,.63,.79,.17,1.6,.26,2.41,.38-.03,.04-.06,.09-.1,.12-.88,.75-1.51,1.65-1.73,2.81-.02,.11-.15,.23-.26,.28-.96,.46-1.98,.54-3.03,.49-1.35-.06-2.36-.67-3.17-1.73-.56-.75-1.17-1.47-1.83-2.13-.69-.7-1.56-.98-2.55-.84-.03,0-.07,0-.1,.01-.18,.1-.47,.18-.5,.32-.04,.14,.14,.39,.28,.52,.28,.25,.61,.44,.91,.67,.84,.66,1.46,1.49,1.88,2.47,.36,.82,.75,1.63,1.37,2.29,1.03,1.09,2.34,1.57,3.8,1.61,.96,.03,1.92-.06,2.92-.09,0,.12,.03,.28,.03,.45,0,1.3,0,2.59,.03,3.89,.02,.79-.28,1.37-.89,1.84-.12,.09-.23,.19-.34,.29h-.06c-.73-.31-1.48-.58-2.2-.92-5.1-2.4-8.94-6.11-11.46-11.16C.55,30.71-.24,26.61,.06,22.31c.4-5.66,2.54-10.57,6.4-14.71C10.06,3.74,14.48,1.33,19.68,.38c.84-.15,1.69-.22,2.53-.33,.07,0,.14-.04,.21-.06,1.04,0,2.07,0,3.11,0,.49,.06,.97,.12,1.46,.18,3.76,.47,7.22,1.74,10.35,3.88,5.35,3.66,8.81,8.66,10.1,15.02,1.47,7.27-.11,13.91-4.68,19.77-2.82,3.61-6.43,6.15-10.74,7.7-.07,.02-.13,.07-.2,.1h-.19Z"/></svg>