<?xml version="1.0" encoding="UTF-8"?><svg id="html" xmlns="http://www.w3.org/2000/svg" viewBox="0 0 79.14 112.08"><defs><style>.cls-1{fill:#fff;}.cls-2{fill:#f16529;}.cls-3{fill:#e44d26;}</style></defs><polygon class="cls-3" points="7.25 103.71 39.51 112.08 72.14 103.71 79.14 22.06 0 22.06 7.25 103.71"/><polygon class="cls-2" points="39.51 28.57 72.14 28.57 65.76 97.83 39.51 105.71 39.51 28.57"/><polygon class="cls-1" points="64.18 48.8 64.88 38.38 15.36 38.38 18.03 68.77 52.22 68.77 50.95 81.58 40.12 84.81 28.72 81.72 28.16 73.7 18.17 73.7 19.72 89.03 40.12 95.08 60.66 89.6 63.05 58.79 27.17 58.79 26.33 48.66 64.18 48.8"/><polygon class="cls-3" points="17.7 .41 17.7 5.32 13.1 5.32 13.1 .41 8.23 .41 8.23 15.22 13.1 15.22 13.1 10.39 17.7 10.39 17.7 15.22 22.58 15.22 22.58 .41 17.7 .41"/><polygon class="cls-3" points="38.71 .41 25.06 .41 25.06 5.42 29.61 5.42 29.61 15.22 34.44 15.22 34.44 5.42 38.71 5.42 38.71 .41"/><polygon class="cls-3" points="45.93 8.04 45.93 15.22 40.96 15.22 40.96 .41 46.26 .41 49.45 5.98 52.97 .41 57.84 .41 57.84 15.22 52.87 15.22 52.87 8.23 49.4 13.06 45.93 8.04"/><polygon class="cls-3" points="65.25 10.67 65.25 .41 60.8 .41 60.8 10.67 60.8 14.23 60.8 15.45 72.57 15.45 72.57 10.67 65.25 10.67"/></svg>