<?xml version="1.0" encoding="UTF-8"?><svg id="ai" xmlns="http://www.w3.org/2000/svg" viewBox="0 0 61.09 61.09"><defs><style>.cls-1{fill:#ff7d00;}.cls-2{fill:#270b00;}</style></defs><path class="cls-1" d="M48.04,12.69c2.35,0,4.15,1.71,4.13,3.95-.02,2.18-1.8,3.8-4.16,3.81-2.39,0-4.03-1.59-4.02-3.89,.02-2.3,1.65-3.86,4.05-3.87Z"/><path class="cls-1" d="M51.91,24.33c-.02,7.76-.02,15.51,0,23.27,0,.55-.12,.79-.73,.78-2.1-.03-4.2-.03-6.29,0-.61,0-.73-.24-.73-.78,.02-3.89,.01-7.78,.01-11.68s.02-7.68-.01-11.51c0-.73,.21-.96,.94-.95,1.99,.04,3.98,.03,5.96,0,.64-.01,.87,.2,.87,.85Z"/><path class="cls-1" d="M39.91,47.69c.05,.18,.09,.36,.15,.63-.3,.03-.53,.06-.77,.06-2.21,0-4.42-.03-6.63,.02-.69,.01-.96-.23-1.14-.87-.68-2.41-1.43-4.81-2.12-7.22-.16-.56-.41-.73-.98-.73-2.79,.03-5.58,.03-8.37,0-.55,0-.77,.19-.91,.7-.65,2.42-1.34,4.83-2.02,7.25-.07,.27-.16,.52-.25,.77h-7.95c.27-.95,.51-1.82,.77-2.68,1.99-6.49,3.99-12.97,5.98-19.45,1.16-3.8,2.33-7.6,3.46-11.4,.16-.53,.4-.68,.93-.67,2.93,.02,5.86,.02,8.79,0,.42,0,.69,.05,.84,.55,2.65,8.59,5.32,17.17,7.98,25.76,.75,2.42,1.49,4.85,2.24,7.28Zm-19.37-13.97h7.43c-1.29-4.61-2.56-9.12-3.84-13.68-1.2,4.57-2.38,9.09-3.59,13.68Z"/><path class="cls-2" d="M61.09,17.74v25.6c0,9.8-7.95,17.74-17.74,17.74H17.74C7.95,61.09,0,53.14,0,43.34V17.74C0,7.95,7.95,0,17.74,0h25.6c9.8,0,17.74,7.95,17.74,17.74Zm-8.92-1.11c.02-2.24-1.78-3.95-4.13-3.95-2.4,0-4.04,1.57-4.05,3.87-.02,2.3,1.63,3.89,4.02,3.89,2.37,0,4.14-1.63,4.16-3.81Zm-.27,30.97c-.01-7.76-.01-15.52,0-23.27,0-.65-.22-.86-.87-.85-1.99,.03-3.98,.04-5.96,0-.73-.02-.94,.22-.94,.95,.03,3.83,.01,7.67,.01,11.51s0,7.78-.01,11.68c0,.55,.12,.79,.73,.78,2.1-.03,4.2-.03,6.29,0,.61,.01,.73-.24,.73-.78Zm-11.84,.71c-.06-.27-.1-.45-.15-.63-.74-2.42-1.48-4.85-2.24-7.28-2.66-8.59-5.34-17.17-7.98-25.76-.15-.49-.42-.55-.84-.55-2.93,.01-5.86,.02-8.79,0-.53,0-.77,.15-.93,.67-1.13,3.8-2.3,7.6-3.46,11.4-1.99,6.48-3.99,12.97-5.98,19.45-.27,.86-.5,1.73-.77,2.68h7.95c.08-.25,.17-.51,.25-.77,.68-2.42,1.37-4.83,2.02-7.25,.14-.52,.36-.71,.91-.7,2.79,.03,5.58,.03,8.37,0,.57,0,.82,.17,.98,.73,.69,2.41,1.44,4.81,2.12,7.22,.18,.64,.45,.88,1.14,.87,2.21-.05,4.42-.02,6.63-.02,.24,0,.47-.03,.77-.06Z"/><path class="cls-2" d="M27.97,33.72h-7.43c1.21-4.59,2.39-9.11,3.59-13.68,1.28,4.55,2.55,9.07,3.84,13.68Z"/></svg>