<?xml version="1.0" encoding="UTF-8"?><svg id="instagram" xmlns="http://www.w3.org/2000/svg" viewBox="0 0 46.62 46.62"><defs><style>.cls-1{fill:#5faaaa;}</style></defs><path class="cls-1" d="M23.86-.09c3,.07,6.49,.12,9.97,.26,2.41,.1,4.71,.7,6.78,1.98,3.04,1.89,4.82,4.66,5.57,8.14,.35,1.64,.46,3.31,.47,4.97,.02,5.48,.02,10.97,0,16.45,0,1.9-.15,3.81-.7,5.64-1.52,5.09-4.99,7.98-10.15,8.93-1.97,.36-3.97,.38-5.97,.4-4.29,.03-8.59,.03-12.88,0-2.21-.02-4.44-.04-6.62-.51-5.31-1.13-8.85-4.75-9.87-10.11-.32-1.69-.39-3.41-.42-5.12C-.05,25.17-.12,19.38,.12,13.59c.08-2.08,.42-4.11,1.27-6.03C3,3.98,5.75,1.74,9.53,.71c1.4-.38,2.84-.56,4.29-.6C17,.03,20.18-.02,23.86-.09Zm-.53,42.7s0-.05,0-.07c1.34,0,2.68,.03,4.03,0,2.45-.07,4.9-.13,7.34-.31,1.55-.12,3.01-.65,4.28-1.59,1.77-1.31,2.74-3.11,3.15-5.24,.34-1.73,.37-3.48,.38-5.23,.04-4.48,.04-8.96,0-13.44-.01-1.81-.03-3.62-.39-5.4-.74-3.63-2.89-5.93-6.54-6.67-1.39-.28-2.82-.4-4.24-.41-5.32-.05-10.64-.03-15.96,0-1.55,0-3.1,.09-4.62,.47-3,.77-5.04,2.58-5.9,5.58-.3,1.07-.49,2.19-.54,3.3-.28,6.12-.21,12.25-.07,18.37,.03,1.35,.12,2.7,.46,4.02,.72,2.78,2.37,4.74,5.1,5.73,1.09,.4,2.23,.62,3.39,.65,3.37,.1,6.74,.17,10.11,.25Z"/><path class="cls-1" d="M23.32,35.35c-6.65-.02-11.99-5.41-11.96-12.07,.03-6.6,5.41-11.94,12-11.93,6.66,.02,12.01,5.4,11.98,12.05-.03,6.62-5.41,11.97-12.02,11.94Zm7.85-12c.05-4.21-3.45-7.76-7.68-7.81-4.34-.05-7.88,3.37-7.95,7.68-.07,4.3,3.41,7.89,7.7,7.94,4.37,.05,7.88-3.41,7.94-7.81Z"/><path class="cls-1" d="M35.77,13.68c-1.55-.02-2.78-1.29-2.76-2.84,.02-1.53,1.29-2.77,2.82-2.75,1.55,.02,2.79,1.28,2.78,2.83-.01,1.54-1.29,2.78-2.84,2.76Z"/></svg>