<?xml version="1.0" encoding="UTF-8"?><svg id="js" xmlns="http://www.w3.org/2000/svg" viewBox="0 0 99.54 99.46"><defs><style>.cls-1{fill:#f7df1e;}</style></defs><rect class="cls-1" x="0" y="0" width="99.54" height="99.54"/><g><path d="M59.27,82.14c2.52-1.46,5.04-2.93,7.59-4.41,.12,.17,.23,.33,.33,.49,1.24,1.9,2.73,3.56,4.89,4.42,2.52,1,5.08,1.13,7.61,.05,2.31-.99,3.27-3.23,2.45-5.47-.33-.9-.92-1.63-1.73-2.1-1.37-.79-2.78-1.51-4.21-2.2-2.26-1.09-4.56-2.07-6.8-3.2-1.58-.8-2.97-1.91-4.17-3.22-1.96-2.14-2.92-4.69-3.15-7.55-.18-2.25,.06-4.43,1-6.5,1.46-3.22,3.94-5.37,7.27-6.43,4.32-1.38,8.62-1.27,12.77,.66,2.43,1.13,4.87,3.67,5.95,6.02-2.41,1.55-4.83,3.1-7.29,4.68-.22-.35-.42-.67-.64-.99-.93-1.39-2.08-2.48-3.78-2.84-1.06-.23-2.12-.25-3.17,.04-3.51,1-3.46,5.07-1.79,6.72,.97,.95,2.14,1.55,3.35,2.1,2.6,1.2,5.23,2.33,7.79,3.6,2,.99,3.8,2.28,5.29,3.98,1.86,2.11,2.74,4.61,2.94,7.39,.15,2.16-.04,4.27-.85,6.29-1.41,3.51-4.07,5.69-7.54,6.95-2.94,1.07-5.98,1.32-9.08,1.08-3.04-.24-5.92-1.01-8.57-2.55-2.69-1.57-4.77-3.75-6.27-6.48-.06-.11-.12-.23-.17-.35-.01-.03-.01-.06-.04-.17Z"/><path d="M26.17,83.17c2.56-1.55,5.08-3.07,7.65-4.63,.11,.18,.21,.34,.31,.5,.65,.92,1.23,1.9,1.97,2.76,1.03,1.19,2.44,1.59,3.98,1.56,.39,0,.78-.04,1.16-.11,2.09-.4,3.2-1.64,3.45-3.91,.08-.75,.11-1.52,.11-2.28,0-10.22,0-20.44,0-30.66q0-.72,.74-.72c2.72,0,5.44,0,8.16,0,.42,0,.55,.1,.55,.54-.01,10.51,0,21.02-.02,31.53,0,2.21-.3,4.38-1.13,6.46-1.25,3.14-3.43,5.37-6.61,6.5-4.47,1.59-8.96,1.54-13.34-.38-3.24-1.42-5.45-3.91-7-7.14Z"/></g></svg>