<?xml version="1.0" encoding="UTF-8"?><svg id="linkedin" xmlns="http://www.w3.org/2000/svg" viewBox="0 0 46.62 46.62"><defs><style>.cls-1{fill:#5faaaa;}</style></defs><path class="cls-1" d="M42.94,.04c-6.55,0-13.09,0-19.64,0s-13.09,0-19.64,0C1.28,.04,.04,1.28,.04,3.68c0,13.09,0,26.19,0,39.28,0,2.38,1.25,3.62,3.64,3.62,13.09,0,26.19,0,39.28,0,2.38,0,3.62-1.25,3.62-3.64,0-13.09,0-26.19,0-39.28,0-2.39-1.24-3.62-3.64-3.62ZM14.18,39.05H7.1V17.99h7.08v21.06Zm-3.52-23.84c-2.39,0-4.11-1.58-4.08-3.77,.03-2.12,1.76-3.68,4.07-3.69,2.37,0,4.08,1.59,4.07,3.79,0,2.12-1.72,3.66-4.06,3.67Zm28.86,23.12c0,.27-.44,.78-.69,.79-2.12,.06-4.25,.04-6.47,.04-.03-.65-.08-1.19-.09-1.72-.04-3.59,0-7.18-.13-10.76-.09-2.42-1.34-3.53-3.56-3.45-1.95,.07-3.43,1.66-3.44,3.77-.02,3.59,0,7.18,0,10.77,0,.42,0,.84,0,1.33h-7.14V18.02h7.12v2.03c1.28-.78,2.47-1.9,3.85-2.27,4.91-1.31,9.68,.88,10.29,6.83,.47,4.53,.23,9.13,.26,13.71Z"/></svg>