<?xml version="1.0" encoding="UTF-8"?><svg id="Capa_1" xmlns="http://www.w3.org/2000/svg" viewBox="0 0 210.86 210.86"><defs><style>.cls-1{fill:#c3fcfc;}.cls-2{fill:#fff;}.cls-3{fill:#5faaaa;}</style></defs><circle class="cls-2" cx="105.43" cy="105.43" r="105.43"/><g><path class="cls-3" d="M105.43,4.01C49.42,4.01,4.01,49.42,4.01,105.43s45.41,101.43,101.43,101.43,101.43-45.41,101.43-101.43S161.45,4.01,105.43,4.01Zm78.75,139.27c-3.22,.6-6.67,.65-10.78,.15-4.24,8.71-10.18,12.19-14.56,13.58-2.28,.72-4.68,1.06-7.1,1-4.41,7.72-10.75,12.99-18.43,15.31-5.93,2.78-13.02,4.58-21.08,5.33-5.51,1.13-11.15,1.69-16.83,1.69-8.18,0-16.42-1.17-24.42-3.49-8.23-2.39-16.5-6.45-23.28-11.45-8.13-5.99-13.74-13.07-16.23-20.48,0-.03-.02-.05-.02-.08-4.23-14.09,.64-28.02,5.47-37.22,.35-.68,.7-1.36,1.05-2.02,.13-.25,.26-.5,.39-.74,.46-3.84,1.09-7.52,1.88-10.97-3.54-2.92-5.34-7.66-4.45-12.12,.63-3.16,4.32-8.62,6.63-11.8,1.92-5.77,8.07-22.99,14.44-28.35,6.96-5.85,28.8-11.45,43.28-11.09,5.56,.14,16.04,2.29,27.28,6.78,1.8-1.07,4.61-1.94,8.34-.61,5.56,1.98,6.72,5.64,6.83,8.04,13.15,7.82,29.06,21.48,33.22,43.15,1.16,6.04-1.07,17.44-2.49,23.65,5.78,3.2,10.33,6.3,14.22,9.68,.02,.02,.04,.04,.06,.06,2.94,2.75,6.12,6.07,6.64,10.84,0,.03,0,.05,0,.08,.5,6.32-4.7,10.12-10.07,11.09Z"/><path class="cls-1" d="M143.35,52.78s14.78,15.02,15.89,29.94c1.12,14.92-2.91,25.24-2.91,25.24l10.02,5.21,2.46-5.18s3.14-17.64,1.79-23.93c-1.35-6.29-8.38-15.65-13.21-21.34-4.84-5.69-14.04-9.95-14.04-9.95Z"/><path class="cls-1" d="M34.74,127.51s3.31,32.45,39.5,36.41,60.59-10.36,71.07-52.99l7.43,8.15s14.99-4.38,19.07,5.92c0,0,1.24,31.91-23.07,27.5,0,0-5.37,28.17-58.69,22.99-53.32-5.18-57.8-33.49-55.31-47.98Z"/><g><path class="cls-3" d="M72,152.68c1.5,.33,3.04,.49,4.58,.49,3.96,0,7.88-1.06,10.88-3.03,2.67-1.75,4.34-4.05,4.85-6.64l-3.95-.77c-.37,1.9-1.9,3.25-3.11,4.05-3.24,2.13-8.11,2.91-12.4,1.98-6.54-1.42-10.42-5.91-9.44-10.91l-3.95-.77c-1.4,7.16,3.87,13.73,12.54,15.62Z"/><polygon class="cls-3" points="64.06 133.79 71.17 136.53 82.62 138.8 72.37 135.01 76.72 121.52 64.06 133.79"/><path class="cls-3" d="M76.93,121.72l5.61,16.55s.03,.04,.04,.06c-.26-5.2-2.86-12.22-5.65-16.61Z"/><g><path class="cls-3" d="M100.85,86.96c.11,0,.22,0,.33,0,3.75-.22,4.87-4.79,5.29-6.51,.64-2.61,.49-6.26-1.35-8.11-.34-.34-.74-.66-1.21-.97-1.73-5.76-5.54-10.66-13.13-12.7-2.41-2.65-7.17-8.36-6.95-12.06,0,0-2.08,3.52-2.47,7.82-5.84-10.65-20.15-6.6-20.15-6.6,2.63,.17,8.69,11.93,9.31,13.89-4.79-.72-8.43,2.27-8.43,2.27,4.08,.82,6.12,1.81,7.15,2.56-.69,.38-1.19,1.04-1.36,1.84-.77,3.62-3.36,9.62-3.66,10.31-.31,.58-.32,1.2-.03,1.74,.64,1.19,2.02,1.23,5.7,1.35,2.87,.09,6.8,.22,11.76,.89,6.12,.82,10.5,2.12,13.7,3.07,2.44,.72,4.11,1.22,5.5,1.22Zm-30.86-8.13c-.92-.03-1.86-.06-2.57-.11,.88-2.12,2.64-6.52,3.32-9.61,2.24-.51,8.86-.45,16.32,.55,8.11,1.09,14.08,2.87,15.96,4.76,.73,.73,1.15,2.97,.58,5.33-.92,3.74-1.92,4.23-2.6,4.27-.94,.05-2.65-.45-4.81-1.09-3.29-.98-7.8-2.31-14.14-3.17-5.11-.69-9.29-.82-12.06-.91Z"/><path class="cls-3" d="M73.37,72.23c-.67-.03-1.24,.49-1.27,1.16-.03,.67,.49,1.24,1.16,1.27,.67,.03,1.24-.49,1.27-1.16s-.49-1.24-1.16-1.27Z"/><path class="cls-3" d="M80.77,72.55c-.67-.03-1.24,.49-1.27,1.16s.49,1.24,1.16,1.27c.67,.03,1.24-.49,1.27-1.16,.03-.67-.49-1.24-1.16-1.27Z"/><path class="cls-3" d="M88.14,73.59c-.67-.03-1.24,.49-1.27,1.16-.03,.67,.49,1.24,1.16,1.27,.67,.03,1.24-.49,1.27-1.16,.03-.67-.49-1.24-1.16-1.27Z"/><path class="cls-3" d="M96.64,76.75c.03-.67-.49-1.24-1.16-1.27-.67-.03-1.24,.49-1.27,1.16-.03,.67,.49,1.24,1.16,1.27,.67,.03,1.24-.49,1.27-1.16Z"/><path class="cls-3" d="M191.12,132.27c-.42-3.87-3.19-6.75-5.81-9.2-4.69-4.09-9.93-7.32-15.37-10.22,.92-3.81,4.13-17.9,2.9-24.32-4.07-21.18-19.99-34.42-33.13-41.94,.27-1.54,.27-5.12-5.04-7.01-3.52-1.26-5.89,.04-7.1,1.08-11.77-4.86-22.47-6.94-27.5-7.07-13.65-.34-34.89,5.02-41.31,10.43-6.15,5.18-12.59,24.03-13.7,27.4-1.32,1.8-5.79,8.08-6.38,11.05-.81,4.06,1.22,8.36,4.8,10.48-1.04,4.17-1.77,8.46-2.27,12.72-.53,1.02-1.1,2.08-1.64,3.14-5.58,10.62-8.8,23.29-5.26,35.1,5.06,15.05,23.04,25.89,37.57,30.11,14.17,4.12,29.48,4.55,43.78,.81,2.84-.73,5.63-1.63,8.35-2.71-3.61,.6-7.16,1.18-10.77,1.58-7.83,.91-15.77,1.24-23.62,.48-16.75-1.68-33.77-8.42-45.2-21.05-2.71-3.08-5.08-6.5-6.29-10.38-.39-1.3-.68-2.64-.9-3.98-1.28-7.91,.44-15.99,3.5-23.34,.03,1.76,.14,3.51,.36,5.26,.48-2.38,1.48-7.17,2.01-9.53,1.98-9.4,4.56-18.63,7.66-27.72h-.02c5.34-3.5,10.16-4.06,9.86-4.06-10.58-.01-15.97,3.57-18.03,5.41-.05-.52-.03-1.04,.07-1.55,.33-1.66,3.63-6.67,5.87-9.7l.19-.26,.1-.31c1.91-5.87,7.91-21.96,12.57-25.88,5.75-4.84,25.95-9.8,38.62-9.48,6.17,.15,21.55,3.49,36.55,11.8,2.24,1.24,4.58,2.66,6.94,4.26,1.01,1.77,2.24,4.46,3.19,8.23,1.73,6.83,2.85,18.63-1.29,36.46-10.9-5.62-24.15-9.69-35.72-10.92,11.72,3.85,23.3,8.36,34,14.49-.41,3.19-.55,11.14,6.28,18.25,0,0-1.66,12.92-.58,13,2.02,.14,6.93-9.91,8.51-21.36,.88,.43,2.01,1,2.65,1.32,1.13,.56,2.25,1.14,3.37,1.73,1.85,1.45,3.69,3.38,4.97,5.86,2.27,4.39,2.39,9.68,.35,15.72-4.67,13.84-13.41,15.4-17.68,15.26,1.94-4.77,3.01-9.95,3.16-14.99,.08-2.1,.05-4.19-.18-6.29-1.24,4.02-2.26,7.97-3.55,11.8-3.98,12.31-9.57,21.2-20.25,28.72,8.81-2.06,15.28-8.21,19.27-15.87,.56,.06,1.23,.11,1.99,.11,1.6,0,3.6-.2,5.75-.88,4.25-1.35,9.9-4.86,13.72-13.85,.28,.05,.53,.09,.8,.13,3.65,.51,7.29,.7,10.96,0,4.17-.75,8.33-3.53,7.95-8.34Zm-42.95-70.92c-.58-2.25-1.25-4.14-1.92-5.69,9.99,7.44,19.69,18.34,22.63,33.63,.91,4.74-1.28,15.91-2.62,21.65-1.25-.63-2.5-1.25-3.76-1.86-.84-.4-2.54-1.18-3.39-1.57-3.37-3-7.58-5.83-12.28-8.36,4.35-18.48,3.15-30.72,1.34-37.8Z"/><path class="cls-3" d="M158.25,137l-1.11,.5s.38,.1,.92,.13c0,0,0,0,0,0h0s-1.77,4.02,1.32,4.72c3.09,.7,4.36-1.88,4.36-1.88,0,0-1.23,1.16-2.43,.84-.65-.17-1.14-.27-1.43-.54,2.33-.49,3.97-4.25,4.5-7.44,.38-2.29,1-4.24,.93-5.73,1.77,.34,2,4.07,2,4.07,0,0,1.7-4.85-2.33-6.38-1.39-.52-2.41-.28-3.15,.26-.72,.47-1.35,1.31-1.69,2.52-.41-.16-.7-.24-.7-.24l.58,.69s2.07,2.33,1.58,4.94c-.49,2.61-3.35,3.54-3.35,3.54Z"/></g><g><path class="cls-3" d="M124.8,71.41c-.12,.66-.44,1.27-.93,1.75-.23,.22-.34,.33-.57,.56,.42,.08,.63,.12,1.05,.2,2.04,.4,3.04,.63,5.01,1.14,.4,.1,.6,.16,1.01,.27-.13-.31-.19-.46-.32-.77-.27-.66-.36-1.36-.25-2.03,.34-1.98,.5-2.96,.83-4.93,2.29,.66,3.29,2.66,3.29,2.66,.21-1.36,.31-2.04,.52-3.38-1.67-.66-2.91-.4-3.68-.05,.24-1.43,.36-2.14,.6-3.57,1.48,.4,2.2,.61,3.59,1.07-.78,.25-1.17,.7-1.17,.7,2.7,.48,3.85,2.97,3.85,2.97,.13-1.05,.2-1.57,.32-2.61,.03-.29,.05-.43,.09-.72,.04-.32,.06-.48,.09-.79,.08-.65,.32-1.21,.68-1.61,.17-.18,.25-.28,.42-.46-4.16-1.89-8.54-3.08-12.97-4.11,.12,.31,.18,.46,.3,.77,.26,.66,.33,1.38,.2,2.06-.43,2.21-.63,3.29-1.02,5.45-.55-.45-1.16-.56-1.16-.56,.91,1.05,.69,3.12,.57,3.87-.15,.85-.22,1.27-.37,2.12Z"/><path class="cls-3" d="M139.55,69.91c-.47-.52-.98-.72-.98-.72,.78,1.16,.67,3.16,.58,3.97-.12,.89-.18,1.33-.3,2.23-.1,.66-.37,1.25-.8,1.68-.2,.21-.3,.31-.5,.51,2.54,.91,3.77,1.39,6.13,2.39-.12-.33-.18-.49-.3-.82-.25-.69-.34-1.42-.28-2.08,.1-.9,.14-1.34,.22-2.22,.09-.79,.39-2.67,1.2-3.11,0,0-.45-.22-.94-.11,.15-2.11,.2-3.14,.27-5.14,.02-.6,.18-1.11,.44-1.45,.12-.16,.18-.24,.3-.39-1.85-1.17-2.88-1.72-5.1-2.72,.12,.31,.18,.46,.29,.77,.25,.65,.36,1.33,.3,1.96-.19,2.07-.3,3.12-.55,5.26Z"/><path class="cls-3" d="M121.96,84.7c-.1,.48-.34,.91-.68,1.25-.16,.16-.24,.24-.41,.41,1.42,.3,2.12,.47,3.51,.83,.25,.06,.37,.1,.62,.16,.25,.07,.37,.1,.62,.17,.39-1.76,.58-2.62,.93-4.35,.57,1.97,.84,2.97,1.34,5,4.44,1.4,8.79,2.98,13.15,4.62,.27,.1,.4,.15,.66,.25-.07-.23-.11-.35-.19-.58-.16-.5-.19-1.03-.09-1.52,.05-.24,.07-.36,.12-.6,.04-.22,.06-.32,.1-.54,.15-.78,.22-1.17,.36-1.95,0,0-1.32,1.03-3.11,.09,0,0,.13,.48,.56,1.03-.98-.37-1.47-.56-2.45-.92,.21-.99,.31-1.48,.5-2.46,1.36,.66,1.94,2.02,1.94,2.02,.19-1,.29-1.49,.46-2.49-.97-.46-1.73-.44-2.25-.29,.19-.97,.27-1.46,.44-2.43,.97,.36,1.45,.54,2.4,.91-.55,.16-.83,.48-.83,.48,1.85,.45,2.63,2.3,2.63,2.3,.13-.78,.19-1.17,.31-1.94,.03-.21,.05-.32,.08-.53,.04-.24,.05-.36,.09-.59,.07-.48,.26-.91,.54-1.21,.13-.14,.2-.21,.32-.35-2.59-1.1-5.22-2.05-7.87-2.99-.8,1.42-1.22,2.14-2.06,3.58,1.38,.46,2.06,.69,3.4,1.18-2.31,1.67-4.64,3.31-6.97,4.95,1.27-2.07,1.89-3.09,3.08-5.13-1.38-.46-2.08-.68-3.49-1.09,1.1-1.84,1.64-2.76,2.68-4.57-1.09-.33-1.65-.49-2.77-.79-.3,1.65-.45,2.48-.78,4.15-.59-1.93-.9-2.87-1.54-4.74-.02,0-.03,0-.06-.01-.25-.06-.38-.09-.63-.15-1.43-.33-2.15-.48-3.61-.75,.1,.2,.14,.3,.24,.51,.2,.43,.26,.91,.19,1.37-.27,1.51-.41,2.27-.71,3.81-.38-.32-.8-.41-.8-.41,.61,.74,.44,2.16,.35,2.74-.13,.64-.19,.95-.32,1.6Z"/></g><path class="cls-3" d="M59.21,120.45c-.33-.03-.67-.09-1.01-.18-1.57-.42-2.87-1.43-3.68-2.83-.81-1.41-1.02-3.04-.6-4.61l2.17-8.08c.42-1.57,1.43-2.87,2.83-3.68s3.04-1.02,4.61-.6c1.57,.42,2.87,1.43,3.68,2.83,.81,1.41,1.02,3.04,.6,4.61l-2.17,8.08c-.78,2.9-3.54,4.74-6.44,4.47Z"/><path class="cls-3" d="M47.45,107.87c-.04-1.61,.11-3.23,.34-4.82,.26-1.61,.51-3.24,1.05-4.79,2.57-7.22,11.85-9.36,17.52-4.27,2.69,2.39,4.11,6.14,3.6,9.72-.07,.75-.38,1.75-.56,2.49-.39,1.46-1.46,5.4-1.87,6.91-.52,1.7-1.36,5.5-2.14,7.06-1.94,4.05-6.5,6.62-10.96,6.14-3.38-.28-7.17-2.4-7.65-6.02,1.85,1.39,3.59,2.69,5.76,3.42,5,1.61,10.22-1.56,11.25-6.67,.6-2.3,1.83-6.93,2.44-9.22,.2-.74,.74-2.72,.93-3.44,.44-1.67,.37-3.46-.22-5.09-1.95-5.65-9.25-7.66-13.8-3.73-1.34,1.16-2.38,2.74-2.99,4.44l-.39,1.11c-.5,1.42-1.81,5.3-2.31,6.77h0Z"/><path class="cls-3" d="M114.7,131c-.36-.03-.72-.1-1.08-.19-1.68-.44-3.09-1.47-3.96-2.91-.87-1.44-1.11-3.11-.67-4.7l2.29-8.23c.44-1.6,1.52-2.93,3.02-3.74s3.25-1.03,4.93-.59c1.68,.44,3.09,1.47,3.96,2.91,.87,1.44,1.11,3.11,.67,4.7l-2.29,8.23c-.82,2.95-3.77,4.82-6.87,4.53Z"/><path class="cls-3" d="M101.98,118.11c-.03-1.65,.14-3.29,.39-4.91,.28-1.64,.54-3.3,1.11-4.88,2.72-7.35,12.65-9.5,18.75-4.28,2.9,2.45,4.44,6.28,3.91,9.93-.07,.77-.4,1.78-.59,2.54-.41,1.48-1.54,5.5-1.97,7.04-.55,1.73-1.43,5.6-2.26,7.19-2.06,4.12-6.93,6.72-11.71,6.21-3.63-.3-7.69-2.49-8.23-6.17,1.99,1.43,3.86,2.76,6.18,3.51,5.37,1.67,10.95-1.54,12.02-6.75,.63-2.35,1.92-7.06,2.57-9.4,.21-.76,.78-2.77,.98-3.51,.47-1.7,.38-3.53-.26-5.19-2.12-5.77-9.95-7.86-14.8-3.87-1.43,1.18-2.54,2.78-3.18,4.51l-.42,1.13c-.53,1.44-1.95,5.39-2.49,6.88h0Z"/></g></g></svg>