<?xml version="1.0" encoding="UTF-8"?><svg id="node" xmlns="http://www.w3.org/2000/svg" viewBox="0 0 99.54 112.1"><defs><style>.cls-1{fill:#fff;}.cls-2{fill:#83cd29;}</style></defs><path class="cls-1" d="M99.53,69.22c0-7.4,0-14.79,0-22.19,0-4.66,0-9.33,0-13.99,0-.28-.03-.55-.05-.83-.12-3.11-1.22-5.79-4.2-7.51-13.47-7.78-26.91-15.63-40.38-23.41-1.72-.99-3.46-1.39-5.21-1.26-2.03-.13-4.07,.42-6.18,1.67C30.79,9.23,18.04,16.7,5.2,24.02,1.67,26.03,.02,28.84,.02,32.72c0,.07,0,.14,0,.21,0,.07-.01,.13-.01,.2,0,3.28,0,6.55,0,9.83,0,7.4,0,14.79,0,22.19,0,4.66,0,9.33,0,13.99,0,.28,.03,.55,.05,.83,.12,3.11,1.22,5.79,4.2,7.51,13.47,7.78,26.91,15.63,40.38,23.41,1.72,.99,3.46,1.39,5.21,1.26,2.03,.13,4.07-.42,6.18-1.67,12.72-7.52,25.48-14.99,38.32-22.31,3.53-2.01,5.17-4.82,5.18-8.7,0-.07,0-.14,0-.21,0-.07,.01-.13,.01-.2,0-3.28,0-6.55,0-9.83Z"/><g><path class="cls-2" d="M32.44,99.25c2.36-1.12,4.33-2.15,6.39-2.96,.51-.2,1.37,.19,1.95,.52,2.65,1.52,5.19,3.22,7.9,4.6,.85,.43,2.34,.48,3.14,.02,12.17-6.95,24.28-14.03,36.42-21.03,1.1-.63,1.45-1.37,1.45-2.61-.04-14.39-.05-28.79,0-43.18,0-1.44-.48-2.23-1.7-2.93-11.95-6.91-23.88-13.85-35.78-20.83-1.37-.8-2.46-.79-3.82,0-12.19,7.07-24.4,14.1-36.64,21.09-1.36,.78-1.93,1.68-1.92,3.28,.06,13.96,.05,27.91,0,41.87,0,1.58,.47,2.54,1.88,3.29,3.07,1.65,6.01,3.54,9.1,5.15,1.31,.68,2.85,1.16,4.31,1.26,3.04,.21,5.1-1.8,5.17-4.87,.08-3.41,.03-6.83,.03-10.25,0-10.69,0-21.37,0-32.06,0-2.73,.58-3.3,3.31-3.35,.51,0,1.02,.05,1.53-.01,2.07-.26,2.66,.79,2.63,2.69-.06,5.16-.02,10.32-.02,15.48,0,8.58,.02,17.15-.02,25.73,0,1.74-.12,3.5-.46,5.2-1.17,5.82-6.59,9.21-12.99,7.93-2.38-.48-4.73-1.42-6.92-2.51-3.25-1.61-6.32-3.57-9.49-5.34-3.08-1.72-4.6-4.36-4.6-7.85-.02-14.32-.02-28.64,0-42.96,0-3.48,1.5-6.11,4.57-7.87,12.67-7.25,25.32-14.54,37.99-21.81,2.88-1.65,5.84-1.71,8.71-.05,12.58,7.27,25.12,14.6,37.7,21.86,2.95,1.7,3.94,4.4,3.95,7.51,.05,14.54,.04,29.08,.01,43.61,0,3.62-1.54,6.24-4.84,8.12-11.99,6.84-23.9,13.81-35.78,20.83-3.57,2.11-6.89,2.18-10.42-.03-4.1-2.56-8.31-4.96-12.75-7.59Z"/><path class="cls-2" d="M61.32,35.25c13.8,0,17.56,7.29,18.37,12.37,.23,1.42-.15,2.28-1.77,2.21-.8-.03-1.61-.07-2.4,.01-1.57,.16-2.35-.48-2.77-2.03-.81-3.01-2.9-4.8-5.94-5.42-3.96-.8-7.94-.93-11.86,.14-1.14,.31-2.33,.97-3.15,1.8-2.32,2.34-1.49,5.83,1.74,6.64,3.92,.99,7.98,1.47,11.96,2.23,2.85,.55,5.72,1.03,8.49,1.85,3.68,1.09,6.5,3.19,7.12,7.37,.69,4.66-.36,8.67-4.26,11.6-3.46,2.59-7.55,3.27-11.7,3.61-4.83,.4-9.59-.02-14.18-1.64-5.22-1.85-8.2-5.52-8.79-11.09-.17-1.63,.26-2.55,2.06-2.47,.94,.04,1.94-.18,2.82,.07,.68,.19,1.64,.85,1.74,1.43,.87,4.92,4.17,7.07,8.69,7.38,3.67,.25,7.39,0,11.06-.3,1.29-.1,2.68-.8,3.73-1.61,3.17-2.45,2.59-6.99-1.23-8.03-4.17-1.14-8.54-1.52-12.81-2.32-2.63-.49-5.28-.97-7.84-1.74-4.27-1.29-6.7-4.28-6.93-8.77-.22-4.22,1.33-7.71,4.99-10.01,3.9-2.45,8.08-3.31,12.85-3.31Z"/></g></svg>