<?xml version="1.0" encoding="UTF-8"?><svg id="_.net" xmlns="http://www.w3.org/2000/svg" xmlns:xlink="http://www.w3.org/1999/xlink" viewBox="0 0 88.27 88.62"><defs><style>.cls-1{fill:#6d429c;}.cls-2{fill:#fff;}.cls-3{fill:#5c2d91;}.cls-4{clip-path:url(#clippath);}.cls-5{fill:none;}</style><clipPath id="clippath"><ellipse class="cls-5" cx="44.14" cy="44.07" rx="44.14" ry="44.07"/></clipPath></defs><ellipse class="cls-1" cx="44.14" cy="44.07" rx="44.14" ry="44.07"/><g class="cls-4"><path class="cls-3" d="M10.69,8.45c6.83,6.99,88.41,89.15,88.41,89.15L122.4,19.81,85.4-6.48l-63.22-2.84L10.69,2.04"/></g><g><g><circle class="cls-2" cx="10.69" cy="49.53" r="2.01"/><polygon class="cls-2" points="34.9 26.16 34.9 46.81 21.76 26.16 20.85 26.16 17.81 26.16 17.81 51.08 20.85 51.08 20.85 30.06 34.25 51.08 34.9 51.08 35.35 51.08 37.94 51.08 37.94 26.16 34.9 26.16"/><polygon class="cls-2" points="47.59 48.36 47.59 39.69 56.46 39.69 56.46 37.1 47.59 37.1 47.59 28.88 57.11 28.88 57.11 26.16 47.59 26.16 45.07 26.16 44.42 26.16 44.42 51.08 46.49 51.08 47.59 51.08 57.69 51.08 57.69 48.36 47.59 48.36"/><polygon class="cls-2" points="77.31 26.16 59.83 26.16 59.83 28.94 67.08 28.94 67.08 51.08 69.93 51.08 69.93 28.94 77.31 28.94 77.31 26.16"/></g><path class="cls-2" d="M41.94,60.07c-2.23,0-4.03,1.96-4.03,4.37s1.8,4.37,4.03,4.37,4.03-1.96,4.03-4.37-1.8-4.37-4.03-4.37Zm0,7.56c-1.47,0-2.67-1.46-2.67-3.27s1.2-3.27,2.67-3.27,2.67,1.46,2.67,3.27-1.2,3.27-2.67,3.27Z"/><path class="cls-2" d="M51.05,60.24c-.65,.26-1.18,.93-1.59,1.73v-1.6h-1.39v8.16h1.39v-5.02s.82-1.89,1.59-2.01c.77-.12,1.36,.16,1.36,.16v-1.42s-.56-.32-1.36,0Z"/><path class="cls-2" d="M60.78,64.9c.01-.15,.02-.31,.02-.46,0-2.41-1.71-4.37-3.81-4.37s-3.81,1.96-3.81,4.37,1.71,4.37,3.81,4.37c1.67,0,3.08-1.23,3.6-2.94h-1.36c-.42,1.04-1.27,1.76-2.24,1.76-1.25,0-2.29-1.18-2.49-2.73h6.28Zm-6.26-1.21c.24-1.48,1.25-2.6,2.47-2.6s2.23,1.11,2.47,2.6h-4.94Z"/><path class="cls-2" d="M36.39,66.83c-.71,.38-1.53,.6-2.41,.6-2.71,0-4.9-2.08-4.9-4.65s2.2-4.65,4.9-4.65c.88,0,1.7,.22,2.41,.6v-1.35c-.74-.28-1.56-.44-2.41-.44-3.51,0-6.36,2.66-6.36,5.93s2.85,5.93,6.36,5.93c.85,0,1.67-.16,2.41-.44v-1.54Z"/></g></svg>