<?xml version="1.0" encoding="UTF-8"?><svg id="ts" xmlns="http://www.w3.org/2000/svg" viewBox="0 0 99.54 99.46"><defs><style>.cls-1{fill:#fff;}.cls-2{fill:#3178c6;}</style></defs><rect class="cls-2" y="0" width="99.54" height="99.54" rx="10.55" ry="10.55"/><g><path class="cls-1" d="M61.52,81.29c4.61,1.04,8.74,2.27,12.96,2.8,2.46,.31,5.31-.45,6.09-3.4,.81-3.09-1.65-4.55-3.88-5.75-2.62-1.41-5.44-2.43-8.06-3.85-5.42-2.93-7.9-7.56-7.15-12.94,.72-5.19,4.67-9.42,10.61-10.23,4.36-.59,8.86-.24,13.3-.14,2.66,.06,4.24,1.23,3.74,4.32-.26,1.63-.05,3.34-.05,4.65-3.74-.68-7.16-1.47-10.63-1.86-1.39-.16-2.98,.32-4.29,.92-2.97,1.36-3.4,4.23-.91,6.32,1.46,1.23,3.31,2.01,5,2.95,2.79,1.56,5.86,2.75,8.36,4.68,7.01,5.44,5.67,16.6-2.44,20.16-6.82,3-13.88,2.52-20.82,.25-.79-.26-1.66-1.54-1.75-2.43-.24-2.34-.08-4.73-.08-6.44Z"/><path class="cls-1" d="M45.45,91.05h-10.04V55.85h-12.38v-7.79H57.72v7.65h-12.27v35.34Z"/></g></svg>